<?plantuml 1.2026.2?><svg xmlns="http://www.w3.org/2000/svg" xmlns:xlink="http://www.w3.org/1999/xlink" contentStyleType="text/css" data-diagram-type="CLASS" height="189px" preserveAspectRatio="none" style="width:617px;height:189px;background:#FFFFFF;" version="1.1" viewBox="0 0 617 189" width="617px" zoomAndPan="magnify"><defs/><g><path d="M97.15,124.732 L161.8358,124.732 A3.75,3.75 0 0 1 164.3358,127.232 L171.3358,149.7999 L175.8358,149.7999 A2.5,2.5 0 0 1 178.3358,152.2999 L178.3358,180.3678 A2.5,2.5 0 0 1 175.8358,182.8678 L97.15,182.8678 A2.5,2.5 0 0 1 94.65,180.3678 L94.65,127.232 A2.5,2.5 0 0 1 97.15,124.732" fill="#F1F1F1" style="stroke:#181818;stroke-width:0.5;"/><line style="stroke:#181818;stroke-width:0.5;" x1="94.65" x2="171.3358" y1="149.7999" y2="149.7999"/><text fill="#000000" font-family="sans-serif" font-size="14" font-weight="bold" lengthAdjust="spacing" textLength="63.6858" x="98.65" y="141.6979">sonetsim</text><path d="M304.21,6.602 L436.771,6.602 A3.75,3.75 0 0 1 439.271,9.102 L446.271,31.6699 L450.771,31.6699 A2.5,2.5 0 0 1 453.271,34.1699 L453.271,62.2378 A2.5,2.5 0 0 1 450.771,64.7378 L304.21,64.7378 A2.5,2.5 0 0 1 301.71,62.2378 L301.71,9.102 A2.5,2.5 0 0 1 304.21,6.602" fill="#F1F1F1" style="stroke:#181818;stroke-width:0.5;"/><line style="stroke:#181818;stroke-width:0.5;" x1="301.71" x2="446.271" y1="31.6699" y2="31.6699"/><text fill="#000000" font-family="sans-serif" font-size="14" font-weight="bold" lengthAdjust="spacing" textLength="131.561" x="305.71" y="23.5679">sonetsim.sonetsim</text><path d="M491.25,6.602 L593.7287,6.602 A3.75,3.75 0 0 1 596.2287,9.102 L603.2287,31.6699 L607.7287,31.6699 A2.5,2.5 0 0 1 610.2287,34.1699 L610.2287,62.2378 A2.5,2.5 0 0 1 607.7287,64.7378 L491.25,64.7378 A2.5,2.5 0 0 1 488.75,62.2378 L488.75,9.102 A2.5,2.5 0 0 1 491.25,6.602" fill="#F1F1F1" style="stroke:#181818;stroke-width:0.5;"/><line style="stroke:#181818;stroke-width:0.5;" x1="488.75" x2="603.2287" y1="31.6699" y2="31.6699"/><text fill="#000000" font-family="sans-serif" font-size="14" font-weight="bold" lengthAdjust="spacing" textLength="101.4787" x="492.75" y="23.5679">sonetsim.tests</text><path d="M8.5,6.602 L250.4882,6.602 A3.75,3.75 0 0 1 252.9882,9.102 L259.9882,31.6699 L264.4882,31.6699 A2.5,2.5 0 0 1 266.9882,34.1699 L266.9882,62.2378 A2.5,2.5 0 0 1 264.4882,64.7378 L8.5,64.7378 A2.5,2.5 0 0 1 6,62.2378 L6,9.102 A2.5,2.5 0 0 1 8.5,6.602" fill="#F1F1F1" style="stroke:#181818;stroke-width:0.5;"/><line style="stroke:#181818;stroke-width:0.5;" x1="6" x2="259.9882" y1="31.6699" y2="31.6699"/><text fill="#000000" font-family="sans-serif" font-size="14" font-weight="bold" lengthAdjust="spacing" textLength="240.9882" x="10" y="23.5679">sonetsim.tests.simulator_validator</text><!--link sonetsim to sonetsim--><g class="link" data-entity-1="ent0002" data-entity-2="ent0002" data-link-type="dependency" data-source-line="10" id="lnk6"><path codeLine="10" d="M178.78,131.962 C197.35,130.022 213.34,137.302 213.34,153.802 C213.34,170.302 203.3179,178.2022 184.7479,176.2722" fill="none" id="sonetsim-to-sonetsim" style="stroke:#181818;stroke-width:1;"/><polygon fill="#181818" points="178.78,175.652,187.3183,180.5609,183.7532,176.1689,188.1453,172.6038,178.78,175.652" style="stroke:#181818;stroke-width:1;"/></g><!--link sonetsim.tests.simulator_validator to sonetsim--><g class="link" data-entity-1="ent0005" data-entity-2="ent0002" data-link-type="dependency" data-source-line="11" id="lnk7"><path codeLine="11" d="M136.49,65.082 C136.49,83.072 136.49,100.272 136.49,118.282" fill="none" id="sonetsim.tests.simulator_validator-to-sonetsim" style="stroke:#181818;stroke-width:1;"/><polygon fill="#181818" points="136.49,124.282,140.49,115.282,136.49,119.282,132.49,115.282,136.49,124.282" style="stroke:#181818;stroke-width:1;"/></g><?plantuml-src AqujKSXBp4qjBaXCJWrEBKWiIYp9BrB8oyzBvG8APIUcfoee5GDv9SMPkKeAYSKAC8v2DLSjfX8zh6hr26WgIIqkAKRL0HR2frmFo2hD0RaslYmn9pC5nC9Y13PbO6FXJjBLjOFhuI92Cx9w0000?></g></svg>