<?plantuml 1.2026.2?><svg xmlns="http://www.w3.org/2000/svg" xmlns:xlink="http://www.w3.org/1999/xlink" contentStyleType="text/css" data-diagram-type="CLASS" height="481px" preserveAspectRatio="none" style="width:643px;height:481px;background:#FFFFFF;" version="1.1" viewBox="0 0 643 481" width="643px" zoomAndPan="magnify"><defs/><g><!--class sonetsim.sonetsim.GraphEvaluator--><g class="entity" data-qualified-name="sonetsim.sonetsim.GraphEvaluator" data-source-line="2" id="ent0002"><rect fill="#F1F1F1" height="467.4942" rx="2.5" ry="2.5" style="stroke:#181818;stroke-width:0.5;" width="278.993" x="7" y="7"/><ellipse cx="90.6147" cy="23" fill="#ADD1B2" rx="11" ry="11" style="stroke:#181818;stroke-width:1;"/><path d="M90.7241,18.5313 Q89.8022,18.5313 89.0678,18.8438 Q88.3491,19.1563 87.8491,19.75 Q87.3491,20.3281 87.0678,21.2031 Q86.8022,22.0781 86.8022,23.1719 Q86.8022,24.6094 87.2397,25.6563 Q87.6928,26.7031 88.5366,27.25 Q89.3959,27.7969 90.7084,27.7969 Q91.4897,27.7969 92.1772,27.6719 Q92.8803,27.5313 93.8803,27.2188 L93.8803,29.0938 Q93.0209,29.4219 92.2553,29.5469 Q91.5053,29.6719 90.4897,29.6719 Q88.5678,29.6719 87.2553,28.875 Q85.9584,28.0625 85.3022,26.5938 Q84.6459,25.1094 84.6459,23.1406 Q84.6459,21.7188 85.0366,20.5469 Q85.4428,19.3594 86.2241,18.4844 Q87.0053,17.6094 88.1459,17.1406 Q89.2866,16.6563 90.7553,16.6563 Q91.7084,16.6563 92.5991,16.8594 Q93.5053,17.0469 94.4428,17.5156 L93.6147,19.2969 Q92.8334,18.9219 92.1772,18.7344 Q91.5209,18.5313 90.7241,18.5313 Z " fill="#000000"/><text fill="#000000" font-family="sans-serif" font-size="14" lengthAdjust="spacing" textLength="103.2636" x="111.1147" y="28.432">GraphEvaluator</text><line style="stroke:#181818;stroke-width:0.5;" x1="8" x2="284.993" y1="39" y2="39"/><text fill="#000000" font-family="sans-serif" font-size="14" lengthAdjust="spacing" textLength="142.8554" x="13" y="57.9659">algorithm : NoneType</text><text fill="#000000" font-family="sans-serif" font-size="14" lengthAdjust="spacing" textLength="77.4197" x="13" y="77.0339">alpha : float</text><text fill="#000000" font-family="sans-serif" font-size="14" lengthAdjust="spacing" textLength="163.6733" x="13" y="96.1018">communities : NoneType</text><text fill="#000000" font-family="sans-serif" font-size="14" lengthAdjust="spacing" textLength="130.7735" x="13" y="115.1697">edge_df : NoneType</text><text fill="#000000" font-family="sans-serif" font-size="14" lengthAdjust="spacing" textLength="39.5079" x="13" y="134.2376">graph</text><text fill="#000000" font-family="sans-serif" font-size="14" lengthAdjust="spacing" textLength="174.0894" x="13" y="153.3055">graph_attribute_map : dict</text><text fill="#000000" font-family="sans-serif" font-size="14" lengthAdjust="spacing" textLength="110.3056" x="13" y="172.3734">graph_map : dict</text><text fill="#000000" font-family="sans-serif" font-size="14" lengthAdjust="spacing" textLength="146.6214" x="13" y="191.4414">metrics_df : NoneType</text><text fill="#000000" font-family="sans-serif" font-size="14" lengthAdjust="spacing" textLength="131.3895" x="13" y="210.5093">node_df : NoneType</text><text fill="#000000" font-family="sans-serif" font-size="14" lengthAdjust="spacing" textLength="107.7436" x="13" y="229.5772">resolution : float</text><text fill="#000000" font-family="sans-serif" font-size="14" lengthAdjust="spacing" textLength="59.4578" x="13" y="248.6451">seed : int</text><text fill="#000000" font-family="sans-serif" font-size="14" lengthAdjust="spacing" textLength="62.8318" x="13" y="267.713">simulator</text><text fill="#000000" font-family="sans-serif" font-size="14" lengthAdjust="spacing" textLength="176.7354" x="13" y="286.7809">supported_algorithms : set</text><line style="stroke:#181818;stroke-width:0.5;" x1="8" x2="284.993" y1="294.8829" y2="294.8829"/><text fill="#000000" font-family="sans-serif" font-size="14" lengthAdjust="spacing" textLength="253.035" x="13" y="313.8489">detect_communities(graph, algorithm)</text><text fill="#000000" font-family="sans-serif" font-size="14" lengthAdjust="spacing" textLength="129.0655" x="13" y="332.9168">evaluate(algorithm)</text><text fill="#000000" font-family="sans-serif" font-size="14" lengthAdjust="spacing" textLength="213.4292" x="13" y="351.9847">evaluate_algorithms(algorithms)</text><text fill="#000000" font-family="sans-serif" font-size="14" lengthAdjust="spacing" textLength="177.3933" x="13" y="371.0526">evaluate_all_communities()</text><text fill="#000000" font-family="sans-serif" font-size="14" lengthAdjust="spacing" textLength="264.8089" x="13" y="390.1205">evaluate_single_community(community)</text><text fill="#000000" font-family="sans-serif" font-size="14" lengthAdjust="spacing" textLength="266.993" x="13" y="409.1884">evaluate_single_graph(graph, algorithm)</text><text fill="#000000" font-family="sans-serif" font-size="14" lengthAdjust="spacing" textLength="163.7434" x="13" y="428.2564">set_algorithm(algorithm)</text><text fill="#000000" font-family="sans-serif" font-size="14" lengthAdjust="spacing" textLength="113.2876" x="13" y="447.3243">set_graph(graph)</text><text fill="#000000" font-family="sans-serif" font-size="14" lengthAdjust="spacing" textLength="96.4876" x="13" y="466.3922">set_seed(seed)</text></g><!--class sonetsim.sonetsim.GraphSimulator--><g class="entity" data-qualified-name="sonetsim.sonetsim.GraphSimulator" data-source-line="26" id="ent0003"><rect fill="#F1F1F1" height="467.4942" rx="2.5" ry="2.5" style="stroke:#181818;stroke-width:0.5;" width="315.1268" x="320.93" y="7"/><ellipse cx="421.7926" cy="23" fill="#ADD1B2" rx="11" ry="11" style="stroke:#181818;stroke-width:1;"/><path d="M421.902,18.5313 Q420.9801,18.5313 420.2457,18.8438 Q419.527,19.1563 419.027,19.75 Q418.527,20.3281 418.2457,21.2031 Q417.9801,22.0781 417.9801,23.1719 Q417.9801,24.6094 418.4176,25.6563 Q418.8707,26.7031 419.7145,27.25 Q420.5739,27.7969 421.8864,27.7969 Q422.6676,27.7969 423.3551,27.6719 Q424.0582,27.5313 425.0582,27.2188 L425.0582,29.0938 Q424.1989,29.4219 423.4332,29.5469 Q422.6832,29.6719 421.6676,29.6719 Q419.7457,29.6719 418.4332,28.875 Q417.1364,28.0625 416.4801,26.5938 Q415.8239,25.1094 415.8239,23.1406 Q415.8239,21.7188 416.2145,20.5469 Q416.6207,19.3594 417.402,18.4844 Q418.1832,17.6094 419.3239,17.1406 Q420.4645,16.6563 421.9332,16.6563 Q422.8864,16.6563 423.777,16.8594 Q424.6832,17.0469 425.6207,17.5156 L424.7926,19.2969 Q424.0114,18.9219 423.3551,18.7344 Q422.6989,18.5313 421.902,18.5313 Z " fill="#000000"/><text fill="#000000" font-family="sans-serif" font-size="14" lengthAdjust="spacing" textLength="104.9016" x="442.2926" y="28.432">GraphSimulator</text><line style="stroke:#181818;stroke-width:0.5;" x1="321.93" x2="635.0568" y1="39" y2="39"/><text fill="#000000" font-family="sans-serif" font-size="14" lengthAdjust="spacing" textLength="45.5558" x="326.93" y="57.9659">affinity</text><text fill="#000000" font-family="sans-serif" font-size="14" lengthAdjust="spacing" textLength="163.6733" x="326.93" y="77.0339">communities : NoneType</text><text fill="#000000" font-family="sans-serif" font-size="14" lengthAdjust="spacing" textLength="161.3914" x="326.93" y="96.1018">count_graph : NoneType</text><text fill="#000000" font-family="sans-serif" font-size="14" lengthAdjust="spacing" textLength="303.1268" x="326.93" y="115.1697">destination_communities : NoneType, ndarray</text><text fill="#000000" font-family="sans-serif" font-size="14" lengthAdjust="spacing" textLength="257.907" x="326.93" y="134.2376">destination_nodes : NoneType, ndarray</text><text fill="#000000" font-family="sans-serif" font-size="14" lengthAdjust="spacing" textLength="249.731" x="326.93" y="153.3055">edge_sentiments : NoneType, ndarray</text><text fill="#000000" font-family="sans-serif" font-size="14" lengthAdjust="spacing" textLength="70.3077" x="326.93" y="172.3734">homophily</text><text fill="#000000" font-family="sans-serif" font-size="14" lengthAdjust="spacing" textLength="64.8757" x="326.93" y="191.4414">insulation</text><text fill="#000000" font-family="sans-serif" font-size="14" lengthAdjust="spacing" textLength="56.0418" x="326.93" y="210.5093">isolation</text><text fill="#000000" font-family="sans-serif" font-size="14" lengthAdjust="spacing" textLength="175.4753" x="326.93" y="229.5772">labels : NoneType, ndarray</text><text fill="#000000" font-family="sans-serif" font-size="14" lengthAdjust="spacing" textLength="253.357" x="326.93" y="248.6451">negative_sentiment_graph : NoneType</text><text fill="#000000" font-family="sans-serif" font-size="14" lengthAdjust="spacing" textLength="244.173" x="326.93" y="267.713">neutral_sentiment_graph : NoneType</text><text fill="#000000" font-family="sans-serif" font-size="14" lengthAdjust="spacing" textLength="118.4535" x="326.93" y="286.7809">nodes : NoneType</text><text fill="#000000" font-family="sans-serif" font-size="14" lengthAdjust="spacing" textLength="150.5134" x="326.93" y="305.8489">num_communities : int</text><text fill="#000000" font-family="sans-serif" font-size="14" lengthAdjust="spacing" textLength="104.6776" x="326.93" y="324.9168">num_edges : int</text><text fill="#000000" font-family="sans-serif" font-size="14" lengthAdjust="spacing" textLength="105.2936" x="326.93" y="343.9847">num_nodes : int</text><text fill="#000000" font-family="sans-serif" font-size="14" lengthAdjust="spacing" textLength="247.743" x="326.93" y="363.0526">positive_sentiment_graph : NoneType</text><text fill="#000000" font-family="sans-serif" font-size="14" lengthAdjust="spacing" textLength="59.4578" x="326.93" y="382.1205">seed : int</text><text fill="#000000" font-family="sans-serif" font-size="14" lengthAdjust="spacing" textLength="273.1809" x="326.93" y="401.1884">source_communities : NoneType, ndarray</text><text fill="#000000" font-family="sans-serif" font-size="14" lengthAdjust="spacing" textLength="168.8953" x="326.93" y="420.2564">source_nodes : NoneType</text><line style="stroke:#181818;stroke-width:0.5;" x1="321.93" x2="635.0568" y1="428.3583" y2="428.3583"/><text fill="#000000" font-family="sans-serif" font-size="14" lengthAdjust="spacing" textLength="96.4876" x="326.93" y="447.3243">set_seed(seed)</text><text fill="#000000" font-family="sans-serif" font-size="14" lengthAdjust="spacing" textLength="64.8757" x="326.93" y="466.3922">simulate()</text></g><?plantuml-src ZLDDJyCm3BtlLqISEWdn0xWZRbpWNfd6QoFbIx4pQKByT-9kxPgk0owfy_pY-BalXAmyEAG87RvZX0GSalB1uwwpGAGUNXF4uUK8DalgGG4fAcacuvxce2QfhvrIOFkG30zEFQktmliuHHpXE4213ZO0btqNdClUi46gYQXxRFMX1dkvP_gsm9pCPsPi7SH2rARZELb13WkpevjwFkZRIn9Ii9bDy8i-2L6NhV7ZnhXiHQd4ESQG67KxAnObX4BKoDXnkn3PZDqzNiUp5wtdoM6pYIuANmcqOjZgaYf9nlSMv_ofcQCjsjZVPfT5qhMLvYQrE3X1ChH6bltkk_BJ-pJ0t_mqayv-EXoCzFoRPxgG_QMHEg6Hs7YGVzfkdtvKNaDAS5gnnI7tUAD52JqRLvPxh26u40TZ9JQUH58fB9jYiocsy8dsNWMFVU4T5tTjQVIOEO7zWxII8r1sgvcSJIwuAAoHgS0PYO7CtvtLRoVarE4__iA5kD7nobhpUyJY--yV?></g></svg>