<?plantuml 1.2026.2?><svg xmlns="http://www.w3.org/2000/svg" xmlns:xlink="http://www.w3.org/1999/xlink" contentStyleType="text/css" data-diagram-type="DESCRIPTION" height="1188px" preserveAspectRatio="none" style="width:815px;height:1188px;background:#FFFFFF;" version="1.1" viewBox="0 0 815 1188" width="815px" zoomAndPan="magnify"><title>sonetsim Repository Architecture</title><defs/><g><g class="title" data-source-line="2"><text fill="#000000" font-family="Monospace" font-size="14" font-weight="bold" lengthAdjust="spacing" textLength="231.8042" x="229.8479" y="24.9659">sonetsim&#160;Repository&#160;Architecture</text></g><!--entity user--><g class="entity" data-qualified-name="user" data-source-line="6" id="ent0002"><ellipse cx="68.2438" cy="213.5679" fill="#F1F1F1" rx="8" ry="8" style="stroke:#181818;stroke-width:0.5;"/><path d="M68.2438,221.5679 L68.2438,248.5679 M55.2438,229.5679 L81.2438,229.5679 M68.2438,248.5679 L55.2438,263.5679 M68.2438,248.5679 L81.2438,263.5679" fill="none" style="stroke:#181818;stroke-width:0.5;"/><text fill="#000000" font-family="Monospace" font-size="14" lengthAdjust="spacing" textLength="124.4875" x="6" y="280.0339">Package&#160;consumer</text><text fill="#000000" font-family="Monospace" font-size="14" lengthAdjust="spacing" textLength="107.8556" x="6" y="299.1018">or&#160;research&#160;user</text></g><!--entity package_surface--><g class="entity" data-qualified-name="package_surface" data-source-line="7" id="ent0003"><rect fill="#DBEAFE" height="77.2038" rx="2.5" ry="2.5" style="stroke:#181818;stroke-width:0.5;" width="291.179" x="67.5" y="360.0679"/><text fill="#000000" font-family="Monospace" font-size="14" lengthAdjust="spacing" textLength="65.3938" x="77.5" y="385.0339">sonetsim/</text><text fill="#000000" font-family="Monospace" font-size="14" lengthAdjust="spacing" text-decoration="underline" textLength="20.9299" x="142.8938" y="385.0339">init</text><text fill="#000000" font-family="Monospace" font-size="14" lengthAdjust="spacing" textLength="19.5019" x="163.8237" y="385.0339">.py</text><text fill="#000000" font-family="Monospace" font-size="14" lengthAdjust="spacing" textLength="150.5414" x="77.5" y="404.1018">public&#160;package&#160;surface</text><text fill="#000000" font-family="Monospace" font-size="14" lengthAdjust="spacing" textLength="219.3092" x="77.5" y="423.1697">GraphSimulator,&#160;GraphEvaluator,</text><text fill="#000000" font-family="Monospace" font-size="14" lengthAdjust="spacing" text-decoration="underline" textLength="48.2298" x="300.4492" y="423.1697">version</text></g><!--entity simulator--><g class="entity" data-qualified-name="simulator" data-source-line="8" id="ent0004"><rect fill="#FEF3C7" height="115.3396" rx="2.5" ry="2.5" style="stroke:#181818;stroke-width:0.5;" width="228.7112" x="261.5" y="474.0679"/><text fill="#000000" font-family="Monospace" font-size="14" lengthAdjust="spacing" textLength="104.9016" x="271.5" y="499.0339">GraphSimulator</text><text fill="#000000" font-family="Monospace" font-size="14" lengthAdjust="spacing" textLength="105.1396" x="271.5" y="518.1018">validate&#160;params</text><text fill="#000000" font-family="Monospace" font-size="14" lengthAdjust="spacing" textLength="64.2877" x="271.5" y="537.1697">seed&#160;RNG</text><text fill="#000000" font-family="Monospace" font-size="14" lengthAdjust="spacing" textLength="202.0192" x="271.5" y="556.2376">assign&#160;communities&#160;and&#160;labels</text><text fill="#000000" font-family="Monospace" font-size="14" lengthAdjust="spacing" textLength="208.7112" x="271.5" y="575.3055">generate&#160;edges&#160;and&#160;sentiments</text></g><!--entity graph_variants--><g class="entity" data-qualified-name="graph_variants" data-source-line="9" id="ent0005"><rect fill="#FEF3C7" height="77.2038" rx="2.5" ry="2.5" style="stroke:#181818;stroke-width:0.5;" width="131.5796" x="310" y="646.0679"/><text fill="#000000" font-family="Monospace" font-size="14" lengthAdjust="spacing" textLength="97.3556" x="320" y="671.0339">Graph&#160;variants</text><text fill="#000000" font-family="Monospace" font-size="14" lengthAdjust="spacing" textLength="99.7636" x="320" y="690.1018">count,&#160;positive,</text><text fill="#000000" font-family="Monospace" font-size="14" lengthAdjust="spacing" textLength="111.5796" x="320" y="709.1697">neutral,&#160;negative</text></g><!--entity evaluator--><g class="entity" data-qualified-name="evaluator" data-source-line="10" id="ent0006"><rect fill="#DCFCE7" height="96.2717" rx="2.5" ry="2.5" style="stroke:#181818;stroke-width:0.5;" width="178.3674" x="287" y="780.0679"/><text fill="#000000" font-family="Monospace" font-size="14" lengthAdjust="spacing" textLength="103.2636" x="297" y="805.0339">GraphEvaluator</text><text fill="#000000" font-family="Monospace" font-size="14" lengthAdjust="spacing" textLength="130.5915" x="297" y="824.1018">select&#160;graph&#160;variant</text><text fill="#000000" font-family="Monospace" font-size="14" lengthAdjust="spacing" textLength="115.2896" x="297" y="843.1697">choose&#160;algorithm</text><text fill="#000000" font-family="Monospace" font-size="14" lengthAdjust="spacing" textLength="158.3674" x="297" y="862.2376">build&#160;node/edge&#160;frames</text></g><!--entity algorithms--><g class="entity" data-qualified-name="algorithms" data-source-line="11" id="ent0007"><rect fill="#DCFCE7" height="77.2038" rx="2.5" ry="2.5" style="stroke:#181818;stroke-width:0.5;" width="228.3752" x="39" y="952.0679"/><text fill="#000000" font-family="Monospace" font-size="14" lengthAdjust="spacing" textLength="208.3752" x="49" y="977.0339">Community&#160;detection&#160;backends</text><text fill="#000000" font-family="Monospace" font-size="14" lengthAdjust="spacing" textLength="113.3436" x="49" y="996.1018">networkx&#160;louvain</text><text fill="#000000" font-family="Monospace" font-size="14" lengthAdjust="spacing" textLength="167.8313" x="49" y="1015.1697">cdlib&#160;leiden,&#160;eva,&#160;infomap</text></g><!--entity metrics--><g class="entity" data-qualified-name="metrics" data-source-line="12" id="ent0008"><rect fill="#E0F2FE" height="115.3396" rx="2.5" ry="2.5" style="stroke:#181818;stroke-width:0.5;" width="217.8612" x="285" y="933.0679"/><text fill="#000000" font-family="Monospace" font-size="14" lengthAdjust="spacing" textLength="120.9176" x="295" y="958.0339">Metrics&#160;dataframe</text><text fill="#000000" font-family="Monospace" font-size="14" lengthAdjust="spacing" textLength="137.4935" x="295" y="977.1018">homophily,&#160;isolation,</text><text fill="#000000" font-family="Monospace" font-size="14" lengthAdjust="spacing" textLength="167.8173" x="295" y="996.1697">insulation,&#160;affinity,&#160;purity,</text><text fill="#000000" font-family="Monospace" font-size="14" lengthAdjust="spacing" textLength="197.8612" x="295" y="1015.2376">conductance,&#160;equity,&#160;altruism,</text><text fill="#000000" font-family="Monospace" font-size="14" lengthAdjust="spacing" textLength="110.5016" x="295" y="1034.3055">balance,&#160;hostility</text></g><!--entity experiment_loop--><g class="entity" data-qualified-name="experiment_loop" data-source-line="13" id="ent0009"><rect fill="#E0F2FE" height="77.2038" rx="2.5" ry="2.5" style="stroke:#181818;stroke-width:0.5;" width="215.5092" x="360" y="1105.0679"/><text fill="#000000" font-family="Monospace" font-size="14" lengthAdjust="spacing" textLength="195.5092" x="370" y="1130.0339">Algorithm&#160;and&#160;weight&#160;sweeps</text><text fill="#000000" font-family="Monospace" font-size="14" lengthAdjust="spacing" textLength="64.3297" x="370" y="1149.1018">evaluate()</text><text fill="#000000" font-family="Monospace" font-size="14" lengthAdjust="spacing" textLength="141.9875" x="370" y="1168.1697">evaluate_algorithms()</text></g><!--entity tests--><g class="entity" data-qualified-name="tests" data-source-line="14" id="ent0010"><rect fill="#E2E8F0" height="58.1358" rx="2.5" ry="2.5" style="stroke:#181818;stroke-width:0.5;" width="268.5271" x="423.5" y="225.0679"/><text fill="#000000" font-family="Monospace" font-size="14" lengthAdjust="spacing" textLength="94.8076" x="433.5" y="250.0339">Validator&#160;suite</text><text fill="#000000" font-family="Monospace" font-size="14" lengthAdjust="spacing" textLength="248.5271" x="433.5" y="269.1018">sonetsim/tests/simulator_validator.py</text></g><!--entity packaging--><g class="entity" data-qualified-name="packaging" data-source-line="15" id="ent0011"><rect fill="#E2E8F0" height="96.2717" rx="2.5" ry="2.5" style="stroke:#181818;stroke-width:0.5;" width="167.8954" x="204" y="52.0679"/><text fill="#000000" font-family="Monospace" font-size="14" lengthAdjust="spacing" textLength="147.8954" x="214" y="77.0339">Packaging&#160;and&#160;release</text><text fill="#000000" font-family="Monospace" font-size="14" lengthAdjust="spacing" textLength="95.8716" x="214" y="96.1018">pyproject.toml</text><text fill="#000000" font-family="Monospace" font-size="14" lengthAdjust="spacing" textLength="110.8936" x="214" y="115.1697">requirements.txt</text><text fill="#000000" font-family="Monospace" font-size="14" lengthAdjust="spacing" textLength="98.2936" x="214" y="134.2376">GitHub&#160;Actions</text></g><g class="link" data-entity-1="ent0002" data-entity-2="ent0003" data-link-type="dependency" id="lnk12"><polygon fill="#181818" points="85.4983,359.865,81.1336,351.0361,81.6531,356.669,76.0201,357.1885,85.4983,359.865" style="stroke:#181818;stroke-width:1;"/><path d="M58.9316,303.2868 C58.8168,316.8361 61.2432,330.9034 69,342.0679 C73.6626,348.7789 74.6439,350.8434 80.884,356.0299" fill="none" style="stroke:#181818;stroke-width:1;"/><text fill="#000000" font-family="Monospace" font-size="13" lengthAdjust="spacing" textLength="100.6981" x="71" y="336.9649">import&#160;sonetsim</text></g><g class="link" data-entity-1="ent0003" data-entity-2="ent0004" data-link-type="dependency" id="lnk13"><polygon fill="#181818" points="305.5797,473.9724,301.0702,465.2166,301.6823,470.8402,296.0587,471.4523,305.5797,473.9724" style="stroke:#181818;stroke-width:1;"/><path d="M259.7093,437.1073 C274.0086,448.5994 285.3902,457.7465 300.9029,470.2138" fill="none" style="stroke:#181818;stroke-width:1;"/></g><g class="link" data-entity-1="ent0003" data-entity-2="ent0006" data-link-type="dependency" id="lnk14"><polygon fill="#181818" points="337.8188,779.9261,335.661,770.3165,334.8364,775.9129,329.24,775.0883,337.8188,779.9261" style="stroke:#181818;stroke-width:1;"/><path d="M217.7258,437.1987 C226.7407,499.6492 250.2043,627.3002 301,723.0679 C311.3787,742.6354 321.4406,757.8872 334.2399,775.1103" fill="none" style="stroke:#181818;stroke-width:1;"/></g><g class="link" data-entity-1="ent0004" data-entity-2="ent0005" data-link-type="dependency" id="lnk15"><polygon fill="#181818" points="376,645.8462,380,636.8462,376,640.8462,372,636.8462,376,645.8462" style="stroke:#181818;stroke-width:1;"/><path d="M376,589.2244 C376,608.1372 376,622.7354 376,639.8462" fill="none" style="stroke:#181818;stroke-width:1;"/><text fill="#000000" font-family="Monospace" font-size="13" lengthAdjust="spacing" textLength="60.2421" x="378" y="622.9649">simulate()</text></g><g class="link" data-entity-1="ent0005" data-entity-2="ent0006" data-link-type="dependency" id="lnk16"><polygon fill="#181818" points="376,779.962,380,770.962,376,774.962,372,770.962,376,779.962" style="stroke:#181818;stroke-width:1;"/><path d="M376,723.1158 C376,740.5552 376,755.4754 376,773.962" fill="none" style="stroke:#181818;stroke-width:1;"/><text fill="#000000" font-family="Monospace" font-size="13" lengthAdjust="spacing" textLength="68.5101" x="378" y="756.9649">set_graph()</text></g><g class="link" data-entity-1="ent0006" data-entity-2="ent0007" data-link-type="dependency" id="lnk17"><polygon fill="#181818" points="180.2355,951.7466,188.9619,947.1804,183.3424,947.829,182.6938,942.2095,180.2355,951.7466" style="stroke:#181818;stroke-width:1;"/><path d="M286.8533,864.0645 C269.5634,872.668 252.1328,882.7208 237,894.0679 C215.4474,910.2289 199.0879,927.9745 183.9637,947.0455" fill="none" style="stroke:#181818;stroke-width:1;"/><text fill="#000000" font-family="Monospace" font-size="13" lengthAdjust="spacing" textLength="131.3001" x="239" y="909.9649">detect_communities()</text></g><g class="link" data-entity-1="ent0006" data-entity-2="ent0008" data-link-type="dependency" id="lnk18"><polygon fill="#181818" points="379.7476,932.8397,382.0392,923.2612,378.8358,927.9236,374.1734,924.7202,379.7476,932.8397" style="stroke:#181818;stroke-width:1;"/><path d="M374.7482,876.4989 C374.9084,889.0718 375.5236,902.6126 377,915.0679 C377.6871,920.8646 377.546,920.9701 378.6534,926.9403" fill="none" style="stroke:#181818;stroke-width:1;"/><text fill="#000000" font-family="Monospace" font-size="13" lengthAdjust="spacing" textLength="144.2611" x="379" y="909.9649">evaluate_single_graph()</text></g><g class="link" data-entity-1="ent0008" data-entity-2="ent0009" data-link-type="dependency" id="lnk19"><polygon fill="#181818" points="414.6324,1104.8292,411.5382,1095.479,411.2691,1101.1294,405.6186,1100.8603,414.6324,1104.8292" style="stroke:#181818;stroke-width:1;"/><path d="M391.4695,1048.1565 C392.8066,1061.4879 395.882,1075.2469 402,1087.0679 C405.303,1093.45 405.6518,1094.9502 410.5964,1100.3895" fill="none" style="stroke:#181818;stroke-width:1;"/><text fill="#000000" font-family="Monospace" font-size="13" lengthAdjust="spacing" textLength="119.6651" x="404" y="1081.9649">concatenate&#160;results</text></g><g class="link" data-entity-1="ent0006" data-entity-2="ent0009" data-link-type="dependency" id="lnk20"><polygon fill="#181818" points="514.1099,1104.952,522.8417,1100.3962,517.2214,1101.0381,516.5795,1095.4178,514.1099,1104.952" style="stroke:#181818;stroke-width:1;"/><path d="M465.1499,848.8102 C488.5395,858.4754 511.086,872.8178 525,894.0679 C571.9883,965.8309 558.3533,1008.0402 525,1087.0679 C522.3147,1093.4304 522.2378,1094.7281 517.8437,1100.2553" fill="none" style="stroke:#181818;stroke-width:1;"/><text fill="#000000" font-family="Monospace" font-size="13" lengthAdjust="spacing" textLength="237.2502" x="558" y="995.9649">evaluate&#160;across&#160;graphs&#160;and&#160;algorithms</text></g><g class="link" data-entity-1="ent0010" data-entity-2="ent0003" data-link-type="dependency" id="lnk21"><polygon fill="#181818" points="207.6672,359.8175,211.7834,350.8701,207.7319,354.8179,203.7841,350.7665,207.6672,359.8175" style="stroke:#181818;stroke-width:1;"/><path d="M481.8991,283.0791 C458.7655,290.6406 433.0876,298.096 409,303.0679 C367.8976,311.5519 250.8059,291.5215 221,321.0679 C210.9473,331.0331 207.9256,339.8621 207.7449,353.818" fill="none" style="stroke:#181818;stroke-width:1;"/><text fill="#000000" font-family="Monospace" font-size="13" lengthAdjust="spacing" textLength="156.0391" x="223" y="336.9649">export&#160;and&#160;import&#160;checks</text></g><g class="link" data-entity-1="ent0010" data-entity-2="ent0004" data-link-type="dependency" id="lnk22"><polygon fill="#181818" points="376.4225,474.0264,381.0946,465.3562,376.8023,469.0408,373.1177,464.7485,376.4225,474.0264" style="stroke:#181818;stroke-width:1;"/><path d="M498.131,283.1072 C466.7975,300.8326 430.5672,326.7185 409,360.0679 C387.1424,393.8663 379.5632,432.7982 376.8783,468.0437" fill="none" style="stroke:#181818;stroke-width:1;"/><text fill="#000000" font-family="Monospace" font-size="13" lengthAdjust="spacing" textLength="185.6662" x="411" y="403.9649">init,&#160;validation,&#160;seeding&#160;checks</text></g><g class="link" data-entity-1="ent0010" data-entity-2="ent0006" data-link-type="dependency" id="lnk23"><polygon fill="#181818" points="465.2215,810.8783,474.9494,812.4173,470.0517,809.5866,472.8825,804.6889,465.2215,810.8783" style="stroke:#181818;stroke-width:1;"/><path d="M575.5323,283.0858 C591.2999,311.0013 612,355.6346 612,397.5679 C612,397.5679 612,397.5679 612,685.5679 C612,756.7489 537.8489,791.4552 471.0178,809.3282" fill="none" style="stroke:#181818;stroke-width:1;"/><text fill="#000000" font-family="Monospace" font-size="13" lengthAdjust="spacing" textLength="192.9722" x="614" y="536.9649">algorithm&#160;and&#160;metric&#160;invariants</text></g><g class="link" data-entity-1="ent0011" data-entity-2="ent0003" data-link-type="dependency" id="lnk24"><polygon fill="#181818" points="200.2291,360.059,201.5928,350.305,198.8506,355.2528,193.9028,352.5106,200.2291,360.059" style="stroke:#181818;stroke-width:1;"/><path d="M233.5047,148.104 C218.4095,164.436 203.9849,183.9903 196,205.0679 C176.6265,256.2081 187.1618,314.4986 198.5749,354.2915" fill="none" style="stroke:#181818;stroke-width:1;"/><text fill="#000000" font-family="Monospace" font-size="13" lengthAdjust="spacing" textLength="214.3312" x="198" y="259.4649">published&#160;interface&#160;and&#160;CI&#160;contract</text></g><g class="link" data-entity-1="ent0011" data-entity-2="ent0010" data-link-type="dependency" id="lnk25"><polygon fill="#181818" points="508.1859,225.0245,502.3056,217.1237,503.8289,222.5716,498.3811,224.095,508.1859,225.0245" style="stroke:#181818;stroke-width:1;"/><path d="M371.5806,148.1207 C416.3396,173.3184 464.7361,200.5638 502.9575,222.081" fill="none" style="stroke:#181818;stroke-width:1;"/><text fill="#000000" font-family="Monospace" font-size="13" lengthAdjust="spacing" textLength="134.3811" x="442" y="181.9649">lint&#160;and&#160;validator&#160;runs</text></g><?plantuml-src TLLDR-D63BthLx39PHVm9eljeOKF1LBNJdlOHR45UX8Wq18jJJFYgCCP9_xtvOmaVwONsnB9nqVoaVvXyDZs21OFBWQGdW8o5i44Io2EAOZfuJiDJanm_W1FlkvCe3f4JuMy61xGOm_IOUDU3RUmGoldbePs66tOE0xVi2VuwjZ9W3KL1TOA2NT_Ols2BK7jM69FlcHzwqa8DHT48Ny7AFb7uJKpSglaxcPsZrLbs8IgUXWE9GznQqqDmuGfqUyqLydF7eVkBzD7Yvfq0VbvlKSRn-UgsfCNuxYgShO9e9e0uFwtNzTFc_KvWKl8aXNCD1W8Sk5IiX0ryFtRSyaeObhM2li-AbT30iYDTdrBLXrROl8faffsCWbnCBr-IAOZSngutwmtFwv-kY42U_G6rR_asaKE2yWpCtjQbCmKWqUx0AOMqxiCsgQuQexxN-HZbr95LerZu9nGytNE2G7QrdaJkhxaRJIs0NODFQQIOASDeR4Icj6qfQlDQdsHRpKrwA2oIIBJUS1M9q7SIAeYl3h_yWRMnJqQrioDDLkmP1hYHO9UWE6Twt78kOwCvBraNobuKmlep30JBBbplHiwOm-A8quRhWIqVKQ5EJq0xdP9RkenH9--Kx-vYGcs9YNnRynMjC578xtQjsX7M-Sa6AlcpAwVyj-lFs--N4hhQIQUjV1AfkrqEL-91ct3r47wyF7qkpgL-k7ZsEUtWNnMK6MT6zxBylSeM1s5A6Sj_xXIWIJ8ur5qrNxsr1tBwDb1CR-iVzvyFiSSbpaTWiJSgrvG57au3DxzesuFmVMsP9_Qv2aB_26ygOYUJVWzRk4f3rtETZ1XpOcAT0JWqwTVRlPp2QOVd0_7erLSUwIeOqNlMe_IB8hJlYN3rQ8iPnmTGN5bky19dXIgxAAkf_V9wqoSoqdkrTc1kF6VvRA4uz35fAOVyMUFpE5g_CjqNciDudHdzBhgJPQh3BSnSoR0sZkPBiPue4xqYs9Km_jZKT0qbXGoJQZkg7wHiw1JitMAMlq29htbXKjND6dW9koypNYnC6CZ56iUIt6Iqliiyz-6T7gl3GSQtoQarH-fRtexwt25CV9OWjM0x7hS4V2HvJy0?></g></svg>