<?plantuml 1.2026.2?><svg xmlns="http://www.w3.org/2000/svg" xmlns:xlink="http://www.w3.org/1999/xlink" contentStyleType="text/css" data-diagram-type="DESCRIPTION" height="948px" preserveAspectRatio="none" style="width:588px;height:948px;background:#FFFFFF;" version="1.1" viewBox="0 0 588 948" width="588px" zoomAndPan="magnify"><title>sonetsim Tooling Integrations</title><defs/><g><g class="title" data-source-line="1"><text fill="#000000" font-family="Monospace" font-size="14" font-weight="bold" lengthAdjust="spacing" textLength="209.5758" x="182.3193" y="24.9659">sonetsim&#160;Tooling&#160;Integrations</text></g><!--entity source_github_workflows_black_pylint_pytest_yml--><g class="entity" data-qualified-name="source_github_workflows_black_pylint_pytest_yml" data-source-line="7" id="ent0002"><rect fill="#E0F2FE" height="58.1358" rx="2.5" ry="2.5" style="stroke:#181818;stroke-width:0.5;" width="292.7189" x="7" y="545.5566"/><text fill="#000000" font-family="Monospace" font-size="14" lengthAdjust="spacing" textLength="272.7189" x="17" y="570.5226">.github/workflows/black-pylint-pytest.yml</text><text fill="#000000" font-family="Monospace" font-size="14" lengthAdjust="spacing" textLength="105.3356" x="17" y="589.5905">9&#160;detected&#160;tools</text></g><!--entity source_github_workflows_python_publish_yml--><g class="entity" data-qualified-name="source_github_workflows_python_publish_yml" data-source-line="8" id="ent0003"><rect fill="#E0F2FE" height="58.1358" rx="2.5" ry="2.5" style="stroke:#181818;stroke-width:0.5;" width="271.831" x="17.44" y="209.5566"/><text fill="#000000" font-family="Monospace" font-size="14" lengthAdjust="spacing" textLength="251.831" x="27.44" y="234.5226">.github/workflows/python-publish.yml</text><text fill="#000000" font-family="Monospace" font-size="14" lengthAdjust="spacing" textLength="105.3356" x="27.44" y="253.5905">5&#160;detected&#160;tools</text></g><!--entity tool_actions_checkout--><g class="entity" data-qualified-name="tool_actions_checkout" data-source-line="9" id="ent0004"><path d="M405.6921,222.4524 C409.5439,216.2933 414.2865,216.4338 418.016,222.5749 C421.3217,215.812 426.3234,217.0609 430.362,221.7874 C434.9823,214.64 439.2429,214.7648 443.8839,221.7677 C448.1587,215.4843 451.9913,216.4723 456.0873,221.9532 C459.4188,217.2673 464.6324,217.4209 467.4126,222.587 C470.1108,216.9292 476.3773,216.4373 479.9545,221.5648 C484.0341,215.5275 489.3319,215.5871 493.705,221.219 C498.8796,215.7834 503.6412,216.2835 506.4916,223.5573 C509.4626,217.4332 514.9429,217.5173 517.9815,223.493 C521.9503,217.6595 526.3344,218.4165 530.3444,223.4461 C540.0257,225.8557 541.3359,232.0154 536.3382,239.8037 C541.7831,248.2609 540.318,253.3642 530.3747,256.2372 C528.1271,261.9086 522.7673,262.3799 519.5914,257.156 C516.0044,263.6662 509.8423,264.2556 505.2511,258.3124 C502.5176,264.2148 498.5471,265.8302 493.3171,261.1195 C490.0362,267.6234 485.5401,267.4475 481.4601,261.9061 C478.9317,269.3452 472.4143,269.8121 468.406,263.2898 C463.5027,269.6876 458.0436,267.6119 455.5565,260.9182 C451.6206,267.6962 445.6989,267.5408 442.1281,260.5618 C437.5934,266.0802 432.9051,264.6016 430.2315,258.6342 C426.3543,263.7517 420.9953,263.3738 418.4514,257.2385 C413.9905,262.7016 407.7686,263.4374 404.5071,255.9473 C397.4091,251.8959 396.0077,243.9129 404.5887,239.9414 C396.3464,233.9132 397.2935,227.4306 405.6921,222.4524" fill="#FEF3C7" style="stroke:#181818;stroke-width:0.5;"/><text fill="#000000" font-family="Monospace" font-size="14" lengthAdjust="spacing" textLength="111.9156" x="411.26" y="244.0526">actions/checkout</text></g><!--entity tool_actions_setup_python--><g class="entity" data-qualified-name="tool_actions_setup_python" data-source-line="10" id="ent0005"><path d="M391.3291,307.6373 C393.5416,301.5825 397.7552,301.5208 401.5739,306.0882 C406.4376,300.7585 410.7769,301.4074 414.1697,307.6844 C416.0657,303.095 420.8636,301.2408 424.3196,305.9885 C427.6791,299.6959 431.2866,299.8025 435.3551,305.3263 C438.9353,299.8398 442.673,300.738 446.1227,305.4639 C449.9614,301.1223 453.5998,301.4507 456.376,306.6105 C459.5514,300.806 464.6079,299.1532 469.3498,304.8423 C472.3956,299.8715 475.334,299.93 478.455,304.7726 C482.7881,299.0299 487.1161,299.6706 490.8453,305.4235 C494.888,300.4861 498.7571,301.15 501.8186,306.473 C504.5871,301.1001 509.3505,301.7763 512.4599,306.0988 C515.5103,300.4547 520.3118,301.1699 523.0425,306.4096 C527.2674,300.7674 531.0672,301.4509 535.1037,306.6197 C538.8954,301.3493 543.3472,301.6627 546.5476,307.2433 C555.6926,309.9445 557.5241,317.9677 551.004,324.674 C558.0389,332.7696 555.5916,339.3075 545.0014,340.8715 C541.5194,346.4623 537.741,346.3898 534.5567,340.5982 C532.5118,346.474 527.5728,346.0975 524.1059,342.1039 C521.359,347.9666 516.7312,348.118 512.8338,343.3206 C509.7127,349.4364 503.9631,349.172 500.8938,343.2691 C498.4705,348.8349 495.2416,348.2137 491.3433,344.8461 C488.1892,349.9792 483.6285,350.6151 480.1169,345.2276 C477.7421,350.6093 472.0819,351.0833 468.7329,346.3208 C465.1516,352.3444 460.6083,352.0177 456.921,346.4286 C453.3463,351.0074 448.1535,351.6962 445.4566,345.4951 C441.8068,349.9786 437.5018,348.4675 435.7553,343.5343 C431.3032,347.565 427.5724,347.2292 424.4181,341.9533 C420.2818,348.0623 416.3678,346.7583 412.4884,341.6793 C410.261,346.1052 405.6323,345.9717 402.9788,342.1719 C399.2047,347.8473 393.6249,347.2336 391.1262,340.9118 C381.3893,339.626 377.8189,332.4582 382.3911,323.8476 C377.4285,314.9316 379.9567,307.5467 391.3291,307.6373" fill="#FEF3C7" style="stroke:#181818;stroke-width:0.5;"/><text fill="#000000" font-family="Monospace" font-size="14" lengthAdjust="spacing" textLength="140.2795" x="397.08" y="328.0526">actions/setup-python</text></g><!--entity tool_actions_upload_artifact--><g class="entity" data-qualified-name="tool_actions_upload_artifact" data-source-line="11" id="ent0006"><path d="M387.7694,726.7745 C390.2113,721.5061 394.332,722.0434 397.4274,726.0975 C401.5159,719.9469 406.7101,720.6699 410.5954,726.3242 C413.5609,720.3453 419.2968,720.3903 422.2335,726.3523 C425.3354,721.6734 431.0574,721.3198 433.6879,726.8797 C436.8376,720.8048 440.6702,721.3712 445.0635,725.4921 C448.1099,719.9856 452.867,721.0754 455.6246,725.7906 C459.0289,719.7726 463.3282,719.0387 467.678,724.8252 C471.8713,719.1612 478.0343,721.003 480.555,726.7181 C483.6598,719.6844 488.1789,720.7126 492.5872,725.3774 C495.8116,721.3775 500.3316,721.0443 502.4744,726.5075 C506.3764,720.3729 509.9724,720.3304 514.3302,726.0517 C518.2815,720.5797 522.7261,721.4033 525.8765,726.8952 C529.6751,721.4865 534.1072,721.1767 538.0745,726.7071 C541.1819,720.3157 546.5677,720.4772 550.1995,726.1814 C559.5689,730.3309 560.9509,736.6411 553.0777,743.6341 C561.1107,750.1353 559.6228,756.0031 550.7306,760.0902 C546.813,765.9539 542.9762,766.6133 537.9695,761.3379 C534.3643,766.6786 528.6387,765.7654 525.8659,760.397 C522.6746,765.3773 519.5326,766.2796 515.629,761.1157 C511.6702,768.2064 506.7129,767.1457 502.3923,761.4915 C499.494,767.2534 495.6549,767.8732 491.2892,763.0275 C488.8866,768.6456 483.8982,768.9914 480.9667,763.5198 C477.3546,770.8784 472.9885,769.7209 467.9999,764.9971 C463.4945,769.6486 460.3507,768.5565 457.7058,763.1021 C454.3383,769.1882 449.007,768.8705 445.103,763.7029 C440.9532,769.1991 436.8713,768.8126 434.0226,762.4836 C429.5752,767.0701 425.6566,767.0718 422.4474,761.1232 C419.4087,766.7994 413.7067,768.0297 409.9962,761.8274 C406.0465,766.9319 401.2237,767.3494 397.422,761.6549 C394.272,766.318 389.2303,766.0749 387.2039,760.5301 C376.7135,758.7962 373.0268,751.3648 380.5828,742.8664 C375.4103,734.761 378.1296,728.2647 387.7694,726.7745" fill="#FEF3C7" style="stroke:#181818;stroke-width:0.5;"/><text fill="#000000" font-family="Monospace" font-size="14" lengthAdjust="spacing" textLength="149.3374" x="392.55" y="748.0526">actions/upload-artifact</text></g><!--entity tool_black--><g class="entity" data-qualified-name="tool_black" data-source-line="12" id="ent0007"><path d="M443.7012,811.7019 C445.723,805.2076 451.7675,804.6878 455.8973,809.4098 C459.7681,802.7848 464.0947,802.6394 468.5224,808.8626 C472.932,803.3682 476.7821,803.5849 480.3059,809.7573 C484.551,803.9991 490.3444,804.0424 493.1993,811.1505 C501.1922,815.012 501.9131,821.5134 495.3901,827.3393 C501.9022,833.4569 501.021,841.2676 492.3717,844.758 C490.6448,850.9951 485.3859,853.4992 480.035,848.8737 C479.0392,855.1314 473.727,856.2382 469.3739,852.4293 C462.8292,857.9162 457.4135,856.0388 455.8611,847.589 C450.0656,853.4896 445.2628,852.1014 443.1337,844.2066 C432.5135,842.3315 431.0282,836.2145 437.0249,828.0548 C431.1082,819.7287 434.9006,814.0194 443.7012,811.7019" fill="#FEF3C7" style="stroke:#181818;stroke-width:0.5;"/><text fill="#000000" font-family="Monospace" font-size="14" lengthAdjust="spacing" textLength="34.2719" x="450.08" y="832.0526">black</text></g><!--entity tool_build--><g class="entity" data-qualified-name="tool_build" data-source-line="13" id="ent0008"><path d="M443.9182,138.4472 C448.0654,132.613 452.857,132.4533 456.6722,138.7949 C459.7548,132.6505 465.1851,131.7308 469.244,137.7891 C472.0534,133.2687 477.1354,132.081 480.1128,137.6073 C484.1335,132.1858 489.3177,132.6448 492.3444,138.6695 C503.2128,140.7929 502.7635,150.1996 496.7164,156.4762 C503.1688,163.1991 500.7308,169.2905 492.2124,171.5361 C490.3782,177.1025 485.0899,178.6494 480.7735,174.4408 C477.7577,180.7493 473.1694,181.5654 468.5763,176.0709 C464.5364,181.6104 458.2087,181.6453 455.4575,174.7151 C450.7036,178.6297 446.0355,177.1127 443.885,171.5397 C433.5663,171.1195 430.791,162.3579 435.8657,154.6353 C430.0828,146.6817 433.1848,138.185 443.9182,138.4472" fill="#FEF3C7" style="stroke:#181818;stroke-width:0.5;"/><text fill="#000000" font-family="Monospace" font-size="14" lengthAdjust="spacing" textLength="33.0959" x="450.67" y="160.0526">build</text></g><!--entity tool_pip--><g class="entity" data-qualified-name="tool_pip" data-source-line="14" id="ent0009"><path d="M451.0912,390.1554 C455.4355,382.5274 462.9007,381.0648 468.3551,388.9173 C475.7631,380.8034 481.8718,382.7509 486.1605,392.0981 C495.5319,393.3502 499.5919,398.2428 494.757,407.4499 C500.8478,417.1766 495.1744,423.6008 485.2861,424.3983 C482.3761,434.3739 476.6852,436.7413 468.3033,429.9361 C459.9873,437.0484 452.1726,433.1453 450.1846,423.2104 C442.372,418.9318 439.94,414.3095 447.4487,407.3826 C440.3808,400.1646 441.2657,393.8015 451.0912,390.1554" fill="#FEF3C7" style="stroke:#181818;stroke-width:0.5;"/><text fill="#000000" font-family="Monospace" font-size="14" lengthAdjust="spacing" textLength="20.8319" x="456.8" y="412.0526">pip</text></g><!--entity tool_pylint--><g class="entity" data-qualified-name="tool_pylint" data-source-line="15" id="ent0010"><path d="M443.9373,894.9533 C447.1913,888.4008 452.795,887.93 456.4382,894.5849 C460.0369,889.2356 465.3336,888.9552 469.3105,894.1219 C472.1185,888.6564 477.0941,887.8233 480.3602,893.6746 C484.8487,888.154 490.6779,888.8084 493.3285,895.609 C504.6588,895.7729 509.524,901.5341 504.11,912.4303 C507.0719,922.6426 504.5022,928.3292 492.8659,927.9968 C491.8497,935.0132 485.9769,935.22 481.675,931.3855 C480.2854,938.3526 474.9727,940.7423 469.2481,935.9771 C463.4038,941.1436 458.03,939.2613 455.9317,931.9722 C450.7193,936.7703 446.3247,935.2224 443.9358,928.9208 C433.6893,927.808 430.623,919.7225 437.69,912.1585 C430.3842,904.3665 434.2674,896.5813 443.9373,894.9533" fill="#FEF3C7" style="stroke:#181818;stroke-width:0.5;"/><text fill="#000000" font-family="Monospace" font-size="14" lengthAdjust="spacing" textLength="36.6799" x="448.88" y="916.0526">pylint</text></g><!--entity tool_pypa_gh_action_pypi_publish--><g class="entity" data-qualified-name="tool_pypa_gh_action_pypi_publish" data-source-line="16" id="ent0011"><path d="M368.2546,55.5709 C372.2044,47.82 379.1979,49.5138 382.8452,55.8835 C387.1057,48.0563 393.6132,48.0302 398.1485,55.6105 C401.512,49.3299 407.8084,47.7317 411.7336,55.0493 C414.7359,47.7759 421.698,46.955 426.0808,53.6292 C429.2575,46.9755 435.6009,47.8875 439.0184,53.3725 C443.9205,47.5995 449.9412,48.5214 453.4557,55.0068 C457.576,48.6306 462.895,47.8211 468.003,53.8483 C472.4272,48.1761 479.0752,48.1409 482.4725,55.031 C485.8179,47.7828 491.0705,47.4448 495.7499,53.7213 C500.9952,47.0838 505.3121,47.6651 510.1518,54.166 C514.1163,46.197 521.8188,46.0679 526.147,53.7955 C530.2872,48.0604 535.6467,48.9304 539.2665,54.4047 C543.426,47.6869 549.3107,47.1083 553.4911,54.3835 C559.2795,48.2995 564.1098,49.1535 568.505,56.001 C577.9616,58.0632 581.0611,63.0005 577.1201,72.1915 C581.2144,81.3782 579.8984,88.1855 568.138,88.7953 C563.6435,95.8029 559.2303,95.4168 554.3388,89.2098 C548.6905,95.7047 544.1996,94.5877 539.3626,88.262 C535.6948,95.1952 530.1529,97.4226 524.206,90.8128 C520.0475,96.1953 515.3798,97.4805 511.4732,90.5522 C507.9037,98.4002 500.7773,97.9232 497.2032,90.5565 C493.253,98.041 486.3457,96.8227 482.9592,89.9955 C479.4011,96.5584 471.8529,97.2083 467.5928,90.8289 C462.4564,97.1242 457.592,97.2781 453.931,89.4061 C450.6302,96.3565 445.1231,96.5555 440.0142,91.5024 C434.1981,97.9897 429.1927,96.4146 425.3789,89.3414 C421.0087,97.0341 415.4244,97.4853 410.4954,89.8853 C406.4473,94.6237 401.5995,94.9154 398.31,89.0163 C392.8849,96.0223 387.462,96.6314 383.0286,88.0444 C378.2222,96.0732 372.9501,95.2778 367.9013,88.2884 C360.013,84.6072 357.1565,78.4096 364.9243,71.8868 C357.2735,65.4641 360.5395,58.8572 368.2546,55.5709" fill="#FEF3C7" style="stroke:#181818;stroke-width:0.5;"/><text fill="#000000" font-family="Monospace" font-size="14" lengthAdjust="spacing" textLength="184.9953" x="374.72" y="76.0526">pypa/gh-action-pypi-publish</text></g><!--entity tool_pytest--><g class="entity" data-qualified-name="tool_pytest" data-source-line="17" id="ent0012"><path d="M441.3393,475.5719 C444.0545,468.6937 451.1122,467.0902 455.7773,473.4444 C459.0065,467.655 464.6945,467.414 468.632,472.616 C472.6587,466.8455 478.5201,467.9258 480.9094,474.2747 C486.5968,466.9311 491.7161,466.5456 496.294,475.3329 C508.0775,475.6641 511.5119,482.5824 504.9509,492.2828 C510.4747,501.8534 506.625,509.0337 495.2491,508.4844 C493.5427,516.1258 488.719,517.9349 482.8981,512.3171 C481.0712,519.9165 474.715,523.0402 468.0465,518.0111 C462.8618,522.2327 456.2224,520.9931 455.585,513.2679 C448.4872,519.2269 441.923,516.5709 441.4006,507.1884 C433.2931,504.3951 429.8582,498.7423 436.1968,491.2364 C429.198,483.7777 433.3714,478.1172 441.3393,475.5719" fill="#FEF3C7" style="stroke:#181818;stroke-width:0.5;"/><text fill="#000000" font-family="Monospace" font-size="14" lengthAdjust="spacing" textLength="40.4599" x="446.99" y="496.0526">pytest</text></g><!--entity tool_ruff--><g class="entity" data-qualified-name="tool_ruff" data-source-line="18" id="ent0013"><path d="M448.7632,558.774 C453.6331,549.3745 463.0161,548.6424 468.6362,557.9783 C475.4449,550.2855 481.1265,550.3202 486.2654,559.7023 C496.821,560.3521 499.0717,566.9459 494.2555,575.4132 C499.0334,584.2428 495.6304,589.2073 486.6239,591.4959 C481.4811,601.4512 475.7908,602.1543 468.1529,594.0475 C461.5035,601.6368 453.2181,602.4358 449.0521,591.4885 C440.0482,590.1806 437.3261,583.2225 443.569,576.381 C436.249,569.1498 440.0146,561.2647 448.7632,558.774" fill="#FEF3C7" style="stroke:#181818;stroke-width:0.5;"/><text fill="#000000" font-family="Monospace" font-size="14" lengthAdjust="spacing" textLength="24.0659" x="455.18" y="580.0526">ruff</text></g><!--entity tool_tee--><g class="entity" data-qualified-name="tool_tee" data-source-line="19" id="ent0014"><path d="M451.0812,642.1554 C455.4274,634.5245 462.8957,633.0615 468.3521,640.9173 C475.7624,632.7998 481.8735,634.7476 486.1645,644.0981 C495.5359,645.3502 499.5959,650.2428 494.761,659.4499 C500.8518,669.1766 495.1784,675.6008 485.2901,676.3983 C482.3778,686.3773 476.6845,688.7448 468.3003,681.9361 C459.9824,689.0519 452.1646,685.1484 450.1746,675.2104 C442.362,670.9318 439.93,666.3095 447.4387,659.3826 C440.3708,652.1646 441.2557,645.8015 451.0812,642.1554" fill="#FEF3C7" style="stroke:#181818;stroke-width:0.5;"/><text fill="#000000" font-family="Monospace" font-size="14" lengthAdjust="spacing" textLength="20.8459" x="456.79" y="664.0526">tee</text></g><g class="entity" data-qualified-name="toolingGraphSummary" data-source-line="35" id="ent0029"><path d="M49.6,128.9166 L49.6,174.3287 L257.1112,174.3287 L257.1112,138.9166 L247.1112,128.9166 L49.6,128.9166" fill="#FEFFDD" style="stroke:#181818;stroke-width:0.5;"/><path d="M247.1112,128.9166 L247.1112,138.9166 L257.1112,138.9166 L247.1112,128.9166" fill="#FEFFDD" style="stroke:#181818;stroke-width:1;"/><text fill="#000000" font-family="Monospace" font-size="13" lengthAdjust="spacing" textLength="186.5112" x="55.6" y="147.8136">Scanned&#160;2&#160;tooling&#160;entrypoints.</text><text fill="#000000" font-family="Monospace" font-size="13" lengthAdjust="spacing" textLength="179.2182" x="55.6" y="165.5197">Detected&#160;11&#160;third-party&#160;tools.</text></g><!--link source_github_workflows_black_pylint_pytest_yml to tool_actions_checkout--><g class="link" data-entity-1="ent0002" data-entity-2="ent0004" data-link-type="dependency" data-source-line="20" id="lnk15"><path d="M291.71,545.2566 C291.71,465.9466 291.71,253.3466 291.71,253.3466 C291.71,253.3466 341.24,253.3466 389.83,253.3466" fill="none" id="source_github_workflows_black_pylint_pytest_yml-to-tool_actions_checkout" style="stroke:#181818;stroke-width:1;"/><polygon fill="#181818" points="395.83,253.3466,386.83,249.3466,390.83,253.3466,386.83,257.3466,395.83,253.3466" style="stroke:#181818;stroke-width:1;"/></g><!--link source_github_workflows_black_pylint_pytest_yml to tool_actions_setup_python--><g class="link" data-entity-1="ent0002" data-entity-2="ent0005" data-link-type="dependency" data-source-line="21" id="lnk16"><path d="M293.71,545.2266 C293.71,478.7466 293.71,322.6266 293.71,322.6266 C293.71,322.6266 331.94,322.6266 375.74,322.6266" fill="none" id="source_github_workflows_black_pylint_pytest_yml-to-tool_actions_setup_python" style="stroke:#181818;stroke-width:1;"/><polygon fill="#181818" points="381.74,322.6266,372.74,318.6266,376.74,322.6266,372.74,326.6266,381.74,322.6266" style="stroke:#181818;stroke-width:1;"/></g><!--link source_github_workflows_black_pylint_pytest_yml to tool_actions_upload_artifact--><g class="link" data-entity-1="ent0002" data-entity-2="ent0006" data-link-type="dependency" data-source-line="22" id="lnk17"><path d="M300,582.7966 C356.03,582.7966 406.71,582.7966 406.71,582.7966 C406.71,582.7966 406.71,666.6966 406.71,711.6466" fill="none" id="source_github_workflows_black_pylint_pytest_yml-to-tool_actions_upload_artifact" style="stroke:#181818;stroke-width:1;"/><polygon fill="#181818" points="406.71,717.6466,410.71,708.6466,406.71,712.6466,402.71,708.6466,406.71,717.6466" style="stroke:#181818;stroke-width:1;"/></g><!--link source_github_workflows_black_pylint_pytest_yml to tool_black--><g class="link" data-entity-1="ent0002" data-entity-2="ent0007" data-link-type="dependency" data-source-line="23" id="lnk18"><path d="M153.71,604.0266 C153.71,670.4966 153.71,826.6266 153.71,826.6266 C153.71,826.6266 348.75,826.6266 428.85,826.6266" fill="none" id="source_github_workflows_black_pylint_pytest_yml-to-tool_black" style="stroke:#181818;stroke-width:1;"/><polygon fill="#181818" points="434.85,826.6266,425.85,822.6266,429.85,826.6266,425.85,830.6266,434.85,826.6266" style="stroke:#181818;stroke-width:1;"/></g><!--link source_github_workflows_black_pylint_pytest_yml to tool_pip--><g class="link" data-entity-1="ent0002" data-entity-2="ent0009" data-link-type="dependency" data-source-line="24" id="lnk19"><path d="M295.71,545.3066 C295.71,499.1666 295.71,414.7966 295.71,414.7966 C295.71,414.7966 387.7,414.7966 435.54,414.7966" fill="none" id="source_github_workflows_black_pylint_pytest_yml-to-tool_pip" style="stroke:#181818;stroke-width:1;"/><polygon fill="#181818" points="441.54,414.7966,432.54,410.7966,436.54,414.7966,432.54,418.7966,441.54,414.7966" style="stroke:#181818;stroke-width:1;"/></g><!--link source_github_workflows_black_pylint_pytest_yml to tool_pylint--><g class="link" data-entity-1="ent0002" data-entity-2="ent0010" data-link-type="dependency" data-source-line="25" id="lnk20"><path d="M79.71,604.1466 C79.71,686.1366 79.71,910.6266 79.71,910.6266 C79.71,910.6266 333.23,910.6266 427.51,910.6266" fill="none" id="source_github_workflows_black_pylint_pytest_yml-to-tool_pylint" style="stroke:#181818;stroke-width:1;"/><polygon fill="#181818" points="433.51,910.6266,424.51,906.6266,428.51,910.6266,424.51,914.6266,433.51,910.6266" style="stroke:#181818;stroke-width:1;"/></g><!--link source_github_workflows_black_pylint_pytest_yml to tool_pytest--><g class="link" data-entity-1="ent0002" data-entity-2="ent0012" data-link-type="dependency" data-source-line="26" id="lnk21"><path d="M297.71,545.2466 C297.71,521.0166 297.71,490.6266 297.71,490.6266 C297.71,490.6266 375.98,490.6266 425.68,490.6266" fill="none" id="source_github_workflows_black_pylint_pytest_yml-to-tool_pytest" style="stroke:#181818;stroke-width:1;"/><polygon fill="#181818" points="431.68,490.6266,422.68,486.6266,426.68,490.6266,422.68,494.6266,431.68,490.6266" style="stroke:#181818;stroke-width:1;"/></g><!--link source_github_workflows_black_pylint_pytest_yml to tool_ruff--><g class="link" data-entity-1="ent0002" data-entity-2="ent0013" data-link-type="dependency" data-source-line="27" id="lnk22"><path d="M300.18,566.4466 C353.31,566.4466 401.99,566.4466 433.72,566.4466" fill="none" id="source_github_workflows_black_pylint_pytest_yml-to-tool_ruff" style="stroke:#181818;stroke-width:1;"/><polygon fill="#181818" points="439.72,566.4466,430.72,562.4466,434.72,566.4466,430.72,570.4466,439.72,566.4466" style="stroke:#181818;stroke-width:1;"/></g><!--link source_github_workflows_black_pylint_pytest_yml to tool_tee--><g class="link" data-entity-1="ent0002" data-entity-2="ent0014" data-link-type="dependency" data-source-line="28" id="lnk23"><path d="M226.71,604.0066 C226.71,628.2266 226.71,658.6266 226.71,658.6266 C226.71,658.6266 373.44,658.6266 435.48,658.6266" fill="none" id="source_github_workflows_black_pylint_pytest_yml-to-tool_tee" style="stroke:#181818;stroke-width:1;"/><polygon fill="#181818" points="441.48,658.6266,432.48,654.6266,436.48,658.6266,432.48,662.6266,441.48,658.6266" style="stroke:#181818;stroke-width:1;"/></g><!--link source_github_workflows_python_publish_yml to tool_actions_checkout--><g class="link" data-entity-1="ent0003" data-entity-2="ent0004" data-link-type="dependency" data-source-line="29" id="lnk24"><path d="M289.65,233.7166 C326.21,233.7166 358.29,233.7166 389.77,233.7166" fill="none" id="source_github_workflows_python_publish_yml-to-tool_actions_checkout" style="stroke:#181818;stroke-width:1;"/><polygon fill="#181818" points="395.77,233.7166,386.77,229.7166,390.77,233.7166,386.77,237.7166,395.77,233.7166" style="stroke:#181818;stroke-width:1;"/></g><!--link source_github_workflows_python_publish_yml to tool_actions_setup_python--><g class="link" data-entity-1="ent0003" data-entity-2="ent0005" data-link-type="dependency" data-source-line="30" id="lnk25"><path d="M289.58,243.5266 C341.63,243.5266 388.71,243.5266 388.71,243.5266 C388.71,243.5266 388.71,268.4266 388.71,291.5966" fill="none" id="source_github_workflows_python_publish_yml-to-tool_actions_setup_python" style="stroke:#181818;stroke-width:1;"/><polygon fill="#181818" points="388.71,297.5966,392.71,288.5966,388.71,292.5966,384.71,288.5966,388.71,297.5966" style="stroke:#181818;stroke-width:1;"/></g><!--link source_github_workflows_python_publish_yml to tool_build--><g class="link" data-entity-1="ent0003" data-entity-2="ent0008" data-link-type="dependency" data-source-line="31" id="lnk26"><path d="M272.71,209.3666 C272.71,184.2966 272.71,152.2066 272.71,152.2066 C272.71,152.2066 374.42,152.2066 429.53,152.2066" fill="none" id="source_github_workflows_python_publish_yml-to-tool_build" style="stroke:#181818;stroke-width:1;"/><polygon fill="#181818" points="435.53,152.2066,426.53,148.2066,430.53,152.2066,426.53,156.2066,435.53,152.2066" style="stroke:#181818;stroke-width:1;"/></g><!--link source_github_workflows_python_publish_yml to tool_pip--><g class="link" data-entity-1="ent0003" data-entity-2="ent0009" data-link-type="dependency" data-source-line="32" id="lnk27"><path d="M153.71,267.9366 C153.71,314.0766 153.71,398.4466 153.71,398.4466 C153.71,398.4466 360.69,398.4466 435.56,398.4466" fill="none" id="source_github_workflows_python_publish_yml-to-tool_pip" style="stroke:#181818;stroke-width:1;"/><polygon fill="#181818" points="441.56,398.4466,432.56,394.4466,436.56,398.4466,432.56,402.4466,441.56,398.4466" style="stroke:#181818;stroke-width:1;"/></g><!--link source_github_workflows_python_publish_yml to tool_pypa_gh_action_pypi_publish--><g class="link" data-entity-1="ent0003" data-entity-2="ent0011" data-link-type="dependency" data-source-line="33" id="lnk28"><path d="M289.75,223.9066 C332.49,223.9066 368.71,223.9066 368.71,223.9066 C368.71,223.9066 368.71,145.0266 368.71,101.5866" fill="none" id="source_github_workflows_python_publish_yml-to-tool_pypa_gh_action_pypi_publish" style="stroke:#181818;stroke-width:1;"/><polygon fill="#181818" points="368.71,95.5866,364.71,104.5866,368.71,100.5866,372.71,104.5866,368.71,95.5866" style="stroke:#181818;stroke-width:1;"/></g><?plantuml-src fPN1Zfim48RlF8MLFPDqjwggNdhPXgg7zf8UAraE66p5U2nxKCJRTsn2Gg4RRP9JDCp_Vnup4mOr6ia2M8b1j-mtWD6sOJyioiOBr613PcID385vtIXabVQoZ8ai7BHrmekM1IKgE4PZBKoGaqmbQz4PBC3YBz5AzXCi12VAgQQ4rb415dVOKp4HBsnZfX8gIcBl90EF2hApXAtMZKRLxJT7y8VQm35izaQKXzprv47wGHbmtRVcZ_r2rI0vPKMt0HDMJ0IwUkTBoGSAFrDuel21mWSA9mfxsdueNehjzH98hy3chjiR7THm-gTRJXy0_0Juv-3IG5UnbKWz29jIoV807IPS1FDJXeyPzbHiYu-ld-VE8B5p-N3IqfsofphU8dJEWAXouL7Nz6m96GHy5CmvwHrVN2bSQ3fjgeacXdEDq-wYe62HJrsSI5AyL3cnQLG-54ylnkcnWrEh4xnHfnl6K8zTMlBYq4ojCPwhV5VN5qsCvWgKyYAWu9o_TNJp_El_9-HnqdHQ7gVDnkP-O1BSRwTHUi2SKe_uuxFx_N6KxdVJd6KtV9nk7wttGDurLTT0wMjnb_DQww_wtlu-P1PGZdzasfNVlN1grxMjy7ssAuMrj1fUnYoZVUXx1zIWiCw-ZQlZ-PcXqhxAQIzYFsoITIPjnIBzBm00?></g></svg>
