<?plantuml 1.2026.2?><svg xmlns="http://www.w3.org/2000/svg" xmlns:xlink="http://www.w3.org/1999/xlink" contentStyleType="text/css" data-diagram-type="DESCRIPTION" height="1201px" preserveAspectRatio="none" style="width:588px;height:1201px;background:#FFFFFF;" version="1.1" viewBox="0 0 588 1201" width="588px" zoomAndPan="magnify"><title>sonetsim Tooling Integrations</title><defs/><g><g class="title" data-source-line="1"><text fill="#000000" font-family="Monospace" font-size="14" font-weight="bold" lengthAdjust="spacing" textLength="209.5758" x="182.3193" y="24.9659">sonetsim&#160;Tooling&#160;Integrations</text></g><!--entity source_github_workflows_black_pylint_pytest_yml--><g class="entity" data-qualified-name="source_github_workflows_black_pylint_pytest_yml" data-source-line="7" id="ent0002"><rect fill="#E0F2FE" height="58.1358" rx="2.5" ry="2.5" style="stroke:#181818;stroke-width:0.5;" width="292.7189" x="7" y="798.7079"/><text fill="#000000" font-family="Monospace" font-size="14" lengthAdjust="spacing" textLength="272.7189" x="17" y="823.6739">.github/workflows/black-pylint-pytest.yml</text><text fill="#000000" font-family="Monospace" font-size="14" lengthAdjust="spacing" textLength="105.3356" x="17" y="842.7418">9&#160;detected&#160;tools</text></g><!--entity source_github_workflows_python_publish_yml--><g class="entity" data-qualified-name="source_github_workflows_python_publish_yml" data-source-line="8" id="ent0003"><rect fill="#E0F2FE" height="58.1358" rx="2.5" ry="2.5" style="stroke:#181818;stroke-width:0.5;" width="271.831" x="17.44" y="462.7079"/><text fill="#000000" font-family="Monospace" font-size="14" lengthAdjust="spacing" textLength="251.831" x="27.44" y="487.6739">.github/workflows/python-publish.yml</text><text fill="#000000" font-family="Monospace" font-size="14" lengthAdjust="spacing" textLength="105.3356" x="27.44" y="506.7418">5&#160;detected&#160;tools</text></g><!--entity source_scripts_run_tachometer_profile_sh--><g class="entity" data-qualified-name="source_scripts_run_tachometer_profile_sh" data-source-line="9" id="ent0004"><rect fill="#E0F2FE" height="58.1358" rx="2.5" ry="2.5" style="stroke:#181818;stroke-width:0.5;" width="242.2912" x="32.21" y="126.7079"/><text fill="#000000" font-family="Monospace" font-size="14" lengthAdjust="spacing" textLength="222.2912" x="42.21" y="151.6739">scripts/run_tachometer_profile.sh</text><text fill="#000000" font-family="Monospace" font-size="14" lengthAdjust="spacing" textLength="105.3356" x="42.21" y="170.7418">3&#160;detected&#160;tools</text></g><!--entity tool_actions_checkout--><g class="entity" data-qualified-name="tool_actions_checkout" data-source-line="10" id="ent0005"><path d="M405.6921,475.6036 C409.5439,469.4446 414.2865,469.5851 418.016,475.7262 C421.3217,468.9632 426.3234,470.2122 430.362,474.9387 C434.9823,467.7913 439.2429,467.9161 443.8839,474.919 C448.1587,468.6356 451.9913,469.6236 456.0873,475.1045 C459.4188,470.4186 464.6324,470.5722 467.4126,475.7382 C470.1108,470.0805 476.3773,469.5886 479.9545,474.7161 C484.0341,468.6788 489.3319,468.7384 493.705,474.3702 C498.8796,468.9347 503.6412,469.4348 506.4916,476.7085 C509.4626,470.5845 514.9429,470.6686 517.9815,476.6443 C521.9503,470.8108 526.3344,471.5678 530.3444,476.5974 C540.0257,479.007 541.3359,485.1667 536.3382,492.955 C541.7831,501.4122 540.318,506.5155 530.3747,509.3885 C528.1271,515.0599 522.7673,515.5312 519.5914,510.3073 C516.0044,516.8175 509.8423,517.4068 505.2511,511.4636 C502.5176,517.3661 498.5471,518.9815 493.3171,514.2708 C490.0362,520.7747 485.5401,520.5988 481.4601,515.0573 C478.9317,522.4965 472.4143,522.9634 468.406,516.4411 C463.5027,522.8389 458.0436,520.7632 455.5565,514.0695 C451.6206,520.8475 445.6989,520.6921 442.1281,513.7131 C437.5934,519.2315 432.9051,517.7529 430.2315,511.7855 C426.3543,516.903 420.9953,516.5251 418.4514,510.3898 C413.9905,515.8529 407.7686,516.5887 404.5071,509.0986 C397.4091,505.0471 396.0077,497.0642 404.5887,493.0927 C396.3464,487.0645 397.2935,480.5819 405.6921,475.6036" fill="#FEF3C7" style="stroke:#181818;stroke-width:0.5;"/><text fill="#000000" font-family="Monospace" font-size="14" lengthAdjust="spacing" textLength="111.9156" x="411.26" y="497.2039">actions/checkout</text></g><!--entity tool_actions_setup_python--><g class="entity" data-qualified-name="tool_actions_setup_python" data-source-line="11" id="ent0006"><path d="M391.3291,560.7886 C393.5416,554.7338 397.7552,554.672 401.5739,559.2395 C406.4376,553.9098 410.7769,554.5586 414.1697,560.8357 C416.0657,556.2463 420.8636,554.3921 424.3196,559.1398 C427.6791,552.8472 431.2866,552.9538 435.3551,558.4776 C438.9353,552.9911 442.673,553.8893 446.1227,558.6152 C449.9614,554.2736 453.5998,554.602 456.376,559.7618 C459.5514,553.9573 464.6079,552.3045 469.3498,557.9936 C472.3956,553.0228 475.334,553.0813 478.455,557.9238 C482.7881,552.1812 487.1161,552.8219 490.8453,558.5748 C494.888,553.6374 498.7571,554.3012 501.8186,559.6243 C504.5871,554.2513 509.3505,554.9276 512.4599,559.2501 C515.5103,553.606 520.3118,554.3211 523.0425,559.5609 C527.2674,553.9187 531.0672,554.6022 535.1037,559.771 C538.8954,554.5006 543.3472,554.814 546.5476,560.3945 C555.6926,563.0958 557.5241,571.119 551.004,577.8252 C558.0389,585.9209 555.5916,592.4588 545.0014,594.0228 C541.5194,599.6135 537.741,599.5411 534.5567,593.7495 C532.5118,599.6253 527.5728,599.2488 524.1059,595.2552 C521.359,601.1179 516.7312,601.2693 512.8338,596.4719 C509.7127,602.5877 503.9631,602.3233 500.8938,596.4204 C498.4705,601.9861 495.2416,601.365 491.3433,597.9974 C488.1892,603.1305 483.6285,603.7664 480.1169,598.3789 C477.7421,603.7606 472.0819,604.2346 468.7329,599.4721 C465.1516,605.4957 460.6083,605.169 456.921,599.5798 C453.3463,604.1587 448.1535,604.8475 445.4566,598.6464 C441.8068,603.1299 437.5018,601.6187 435.7553,596.6856 C431.3032,600.7163 427.5724,600.3805 424.4181,595.1046 C420.2818,601.2135 416.3678,599.9096 412.4884,594.8306 C410.261,599.2565 405.6323,599.123 402.9788,595.3232 C399.2047,600.9986 393.6249,600.3849 391.1262,594.0631 C381.3893,592.7773 377.8189,585.6095 382.3911,576.9989 C377.4285,568.0828 379.9567,560.6979 391.3291,560.7886" fill="#FEF3C7" style="stroke:#181818;stroke-width:0.5;"/><text fill="#000000" font-family="Monospace" font-size="14" lengthAdjust="spacing" textLength="140.2795" x="397.08" y="581.2039">actions/setup-python</text></g><!--entity tool_actions_upload_artifact--><g class="entity" data-qualified-name="tool_actions_upload_artifact" data-source-line="12" id="ent0007"><path d="M387.7694,979.9258 C390.2113,974.6573 394.332,975.1947 397.4274,979.2488 C401.5159,973.0982 406.7101,973.8212 410.5954,979.4755 C413.5609,973.4966 419.2968,973.5416 422.2335,979.5036 C425.3354,974.8247 431.0574,974.4711 433.6879,980.031 C436.8376,973.956 440.6702,974.5225 445.0635,978.6434 C448.1099,973.1369 452.867,974.2266 455.6246,978.9419 C459.0289,972.9238 463.3282,972.19 467.678,977.9765 C471.8713,972.3125 478.0343,974.1543 480.555,979.8694 C483.6598,972.8357 488.1789,973.8639 492.5872,978.5287 C495.8116,974.5288 500.3316,974.1956 502.4744,979.6588 C506.3764,973.5241 509.9724,973.4817 514.3302,979.203 C518.2815,973.731 522.7261,974.5545 525.8765,980.0465 C529.6751,974.6378 534.1072,974.328 538.0745,979.8584 C541.1819,973.467 546.5677,973.6284 550.1995,979.3327 C559.5689,983.4822 560.9509,989.7924 553.0777,996.7854 C561.1107,1003.2865 559.6228,1009.1544 550.7306,1013.2414 C546.813,1019.1051 542.9762,1019.7646 537.9695,1014.4892 C534.3643,1019.8299 528.6387,1018.9167 525.8659,1013.5483 C522.6746,1018.5286 519.5326,1019.4309 515.629,1014.267 C511.6702,1021.3577 506.7129,1020.297 502.3923,1014.6428 C499.494,1020.4047 495.6549,1021.0245 491.2892,1016.1788 C488.8866,1021.7969 483.8982,1022.1427 480.9667,1016.6711 C477.3546,1024.0297 472.9885,1022.8722 467.9999,1018.1484 C463.4945,1022.7999 460.3507,1021.7078 457.7058,1016.2534 C454.3383,1022.3394 449.007,1022.0218 445.103,1016.8542 C440.9532,1022.3504 436.8713,1021.9639 434.0226,1015.6349 C429.5752,1020.2214 425.6566,1020.2231 422.4474,1014.2745 C419.4087,1019.9507 413.7067,1021.181 409.9962,1014.9787 C406.0465,1020.0832 401.2237,1020.5007 397.422,1014.8062 C394.272,1019.4693 389.2303,1019.2262 387.2039,1013.6814 C376.7135,1011.9474 373.0268,1004.5161 380.5828,996.0176 C375.4103,987.9123 378.1296,981.4159 387.7694,979.9258" fill="#FEF3C7" style="stroke:#181818;stroke-width:0.5;"/><text fill="#000000" font-family="Monospace" font-size="14" lengthAdjust="spacing" textLength="149.3374" x="392.55" y="1001.2039">actions/upload-artifact</text></g><!--entity tool_black--><g class="entity" data-qualified-name="tool_black" data-source-line="13" id="ent0008"><path d="M443.7012,1064.8532 C445.723,1058.3588 451.7675,1057.8391 455.8973,1062.5611 C459.7681,1055.9361 464.0947,1055.7907 468.5224,1062.0139 C472.932,1056.5195 476.7821,1056.7362 480.3059,1062.9086 C484.551,1057.1503 490.3444,1057.1937 493.1993,1064.3017 C501.1922,1068.1633 501.9131,1074.6647 495.3901,1080.4906 C501.9022,1086.6082 501.021,1094.4189 492.3717,1097.9092 C490.6448,1104.1464 485.3859,1106.6505 480.035,1102.025 C479.0392,1108.2827 473.727,1109.3895 469.3739,1105.5806 C462.8292,1111.0675 457.4135,1109.1901 455.8611,1100.7403 C450.0656,1106.6409 445.2628,1105.2527 443.1337,1097.3578 C432.5135,1095.4828 431.0282,1089.3657 437.0249,1081.206 C431.1082,1072.88 434.9006,1067.1707 443.7012,1064.8532" fill="#FEF3C7" style="stroke:#181818;stroke-width:0.5;"/><text fill="#000000" font-family="Monospace" font-size="14" lengthAdjust="spacing" textLength="34.2719" x="450.08" y="1085.2039">black</text></g><!--entity tool_build--><g class="entity" data-qualified-name="tool_build" data-source-line="14" id="ent0009"><path d="M443.9182,391.5985 C448.0654,385.7643 452.857,385.6046 456.6722,391.9462 C459.7548,385.8018 465.1851,384.8821 469.244,390.9404 C472.0534,386.42 477.1354,385.2323 480.1128,390.7586 C484.1335,385.3371 489.3177,385.796 492.3444,391.8208 C503.2128,393.9442 502.7635,403.3509 496.7164,409.6275 C503.1688,416.3504 500.7308,422.4418 492.2124,424.6874 C490.3782,430.2538 485.0899,431.8007 480.7735,427.5921 C477.7577,433.9005 473.1694,434.7167 468.5763,429.2221 C464.5364,434.7617 458.2087,434.7966 455.4575,427.8664 C450.7036,431.781 446.0355,430.264 443.885,424.6909 C433.5663,424.2708 430.791,415.5091 435.8657,407.7866 C430.0828,399.833 433.1848,391.3363 443.9182,391.5985" fill="#FEF3C7" style="stroke:#181818;stroke-width:0.5;"/><text fill="#000000" font-family="Monospace" font-size="14" lengthAdjust="spacing" textLength="33.0959" x="450.67" y="413.2039">build</text></g><!--entity tool_pip--><g class="entity" data-qualified-name="tool_pip" data-source-line="15" id="ent0010"><path d="M451.0912,643.3066 C455.4355,635.6787 462.9007,634.2161 468.3551,642.0686 C475.7631,633.9547 481.8718,635.9022 486.1605,645.2494 C495.5319,646.5015 499.5919,651.3941 494.757,660.6012 C500.8478,670.3279 495.1744,676.752 485.2861,677.5496 C482.3761,687.5252 476.6852,689.8925 468.3033,683.0874 C459.9873,690.1997 452.1726,686.2965 450.1846,676.3617 C442.372,672.083 439.94,667.4608 447.4487,660.5339 C440.3808,653.3159 441.2657,646.9528 451.0912,643.3066" fill="#FEF3C7" style="stroke:#181818;stroke-width:0.5;"/><text fill="#000000" font-family="Monospace" font-size="14" lengthAdjust="spacing" textLength="20.8319" x="456.8" y="665.2039">pip</text></g><!--entity tool_pylint--><g class="entity" data-qualified-name="tool_pylint" data-source-line="16" id="ent0011"><path d="M443.9373,1148.1046 C447.1913,1141.5521 452.795,1141.0813 456.4382,1147.7362 C460.0369,1142.3869 465.3336,1142.1065 469.3105,1147.2732 C472.1185,1141.8077 477.0941,1140.9746 480.3602,1146.8259 C484.8487,1141.3053 490.6779,1141.9597 493.3285,1148.7603 C504.6588,1148.9242 509.524,1154.6854 504.11,1165.5815 C507.0719,1175.7938 504.5022,1181.4805 492.8659,1181.1481 C491.8497,1188.1645 485.9769,1188.3713 481.675,1184.5368 C480.2854,1191.5039 474.9727,1193.8936 469.2481,1189.1284 C463.4038,1194.2949 458.03,1192.4126 455.9317,1185.1235 C450.7193,1189.9216 446.3247,1188.3737 443.9358,1182.0721 C433.6893,1180.9593 430.623,1172.8738 437.69,1165.3098 C430.3842,1157.5178 434.2674,1149.7325 443.9373,1148.1046" fill="#FEF3C7" style="stroke:#181818;stroke-width:0.5;"/><text fill="#000000" font-family="Monospace" font-size="14" lengthAdjust="spacing" textLength="36.6799" x="448.88" y="1169.2039">pylint</text></g><!--entity tool_pypa_gh_action_pypi_publish--><g class="entity" data-qualified-name="tool_pypa_gh_action_pypi_publish" data-source-line="17" id="ent0012"><path d="M368.2546,308.7222 C372.2044,300.9713 379.1979,302.6651 382.8452,309.0348 C387.1057,301.2076 393.6132,301.1815 398.1485,308.7618 C401.512,302.4812 407.8084,300.883 411.7336,308.2006 C414.7359,300.9272 421.698,300.1063 426.0808,306.7805 C429.2575,300.1268 435.6009,301.0387 439.0184,306.5238 C443.9205,300.7508 449.9412,301.6727 453.4557,308.1581 C457.576,301.7819 462.895,300.9724 468.003,306.9995 C472.4272,301.3273 479.0752,301.2922 482.4725,308.1823 C485.8179,300.9341 491.0705,300.5961 495.7499,306.8726 C500.9952,300.2351 505.3121,300.8164 510.1518,307.3173 C514.1163,299.3483 521.8188,299.2192 526.147,306.9468 C530.2872,301.2117 535.6467,302.0817 539.2665,307.556 C543.426,300.8381 549.3107,300.2596 553.4911,307.5347 C559.2795,301.4508 564.1098,302.3048 568.505,309.1523 C577.9616,311.2145 581.0611,316.1517 577.1201,325.3428 C581.2144,334.5295 579.8984,341.3368 568.138,341.9466 C563.6435,348.9542 559.2303,348.568 554.3388,342.3611 C548.6905,348.8559 544.1996,347.739 539.3626,341.4133 C535.6948,348.3464 530.1529,350.5739 524.206,343.964 C520.0475,349.3466 515.3798,350.6318 511.4732,343.7035 C507.9037,351.5514 500.7773,351.0745 497.2032,343.7078 C493.253,351.1923 486.3457,349.974 482.9592,343.1467 C479.4011,349.7097 471.8529,350.3596 467.5928,343.9802 C462.4564,350.2755 457.592,350.4294 453.931,342.5574 C450.6302,349.5078 445.1231,349.7067 440.0142,344.6537 C434.1981,351.1409 429.1927,349.5659 425.3789,342.4927 C421.0087,350.1854 415.4244,350.6366 410.4954,343.0366 C406.4473,347.775 401.5995,348.0667 398.31,342.1676 C392.8849,349.1736 387.462,349.7827 383.0286,341.1956 C378.2222,349.2245 372.9501,348.4291 367.9013,341.4397 C360.013,337.7585 357.1565,331.5609 364.9243,325.0381 C357.2735,318.6154 360.5395,312.0085 368.2546,308.7222" fill="#FEF3C7" style="stroke:#181818;stroke-width:0.5;"/><text fill="#000000" font-family="Monospace" font-size="14" lengthAdjust="spacing" textLength="184.9953" x="374.72" y="329.2039">pypa/gh-action-pypi-publish</text></g><!--entity tool_pytest--><g class="entity" data-qualified-name="tool_pytest" data-source-line="18" id="ent0013"><path d="M441.3393,728.7232 C444.0545,721.845 451.1122,720.2415 455.7773,726.5957 C459.0065,720.8063 464.6945,720.5653 468.632,725.7673 C472.6587,719.9968 478.5201,721.0771 480.9094,727.426 C486.5968,720.0824 491.7161,719.6968 496.294,728.4842 C508.0775,728.8154 511.5119,735.7337 504.9509,745.4341 C510.4747,755.0046 506.625,762.185 495.2491,761.6356 C493.5427,769.277 488.719,771.0862 482.8981,765.4684 C481.0712,773.0677 474.715,776.1915 468.0465,771.1624 C462.8618,775.384 456.2224,774.1444 455.585,766.4192 C448.4872,772.3782 441.923,769.7221 441.4006,760.3397 C433.2931,757.5464 429.8582,751.8936 436.1968,744.3877 C429.198,736.929 433.3714,731.2685 441.3393,728.7232" fill="#FEF3C7" style="stroke:#181818;stroke-width:0.5;"/><text fill="#000000" font-family="Monospace" font-size="14" lengthAdjust="spacing" textLength="40.4599" x="446.99" y="749.2039">pytest</text></g><!--entity tool_ruff--><g class="entity" data-qualified-name="tool_ruff" data-source-line="19" id="ent0014"><path d="M448.7632,811.9253 C453.6331,802.5258 463.0161,801.7936 468.6362,811.1296 C475.4449,803.4368 481.1265,803.4715 486.2654,812.8536 C496.821,813.5033 499.0717,820.0972 494.2555,828.5645 C499.0334,837.394 495.6304,842.3586 486.6239,844.6472 C481.4811,854.6025 475.7908,855.3056 468.1529,847.1988 C461.5035,854.788 453.2181,855.587 449.0521,844.6398 C440.0482,843.3319 437.3261,836.3738 443.569,829.5323 C436.249,822.3011 440.0146,814.416 448.7632,811.9253" fill="#FEF3C7" style="stroke:#181818;stroke-width:0.5;"/><text fill="#000000" font-family="Monospace" font-size="14" lengthAdjust="spacing" textLength="24.0659" x="455.18" y="833.2039">ruff</text></g><!--entity tool_run--><g class="entity" data-qualified-name="tool_run" data-source-line="20" id="ent0015"><path d="M448.8802,56.8706 C453.7518,47.7293 462.0548,46.1296 469.1151,54.3143 C474.9787,46.5504 483.3035,48.2883 486.7027,56.9525 C496.2923,57.6613 501.9816,62.4144 496.4944,72.5737 C501.7285,82.0202 498.2265,87.44 487.853,88.3228 C487.6146,101.0475 481.2831,106.0421 469.2897,99.8709 C458.383,104.9036 451.2206,103.4176 450.5202,89.6703 C440.8593,88.8356 437.0711,80.744 442.4239,72.7327 C437.3685,64.6057 439.7847,59.2377 448.8802,56.8706" fill="#FEF3C7" style="stroke:#181818;stroke-width:0.5;"/><text fill="#000000" font-family="Monospace" font-size="14" lengthAdjust="spacing" textLength="23.0859" x="455.67" y="77.2039">run</text></g><!--entity tool_summarize--><g class="entity" data-qualified-name="tool_summarize" data-source-line="21" id="ent0016"><path d="M424.7562,139.7082 C429.9505,132.088 435.1879,133.6617 439.6154,140.4963 C443.2319,133.3452 448.9394,133.5795 453.0202,140.0389 C457.8542,132.5754 462.6209,131.3054 468.8259,138.5673 C472.8867,131.1997 479.9865,131.4657 483.6106,139.0007 C488.1951,132.1413 495.0865,132.4184 498.3024,140.3593 C501.9389,134.5447 508.639,133.9823 511.8017,140.8631 C521.1694,140.9338 525.2794,148.7506 520.1893,156.5512 C526.1339,165.1643 522.4613,171.1668 512.8664,172.7589 C509.0844,180.6105 501.4945,180.5184 496.5762,174.0518 C493.2699,182.1689 487.9883,181.6599 482.7295,176.0165 C479.9374,183.3974 473.0539,182.8845 468.9946,177.3659 C464.1656,182.9427 459.1955,183.9218 454.8581,176.8179 C449.3002,182.4858 442.9788,181.7947 439.8819,174.0665 C435.692,181.7863 429.2019,181.8264 425.3276,173.7753 C414.7676,172.9199 412.8351,163.6176 418.2771,156.3045 C412.9633,149.1206 414.0292,140.6298 424.7562,139.7082" fill="#FEF3C7" style="stroke:#181818;stroke-width:0.5;"/><text fill="#000000" font-family="Monospace" font-size="14" lengthAdjust="spacing" textLength="73.2617" x="430.59" y="161.2039">summarize</text></g><!--entity tool_tachometer--><g class="entity" data-qualified-name="tool_tachometer" data-source-line="22" id="ent0017"><path d="M423.5572,223.6907 C426.3307,218.6174 430.886,218.9775 433.6174,223.7338 C437.6984,217.5092 443.0457,218.9347 446.5026,224.4206 C449.8205,218.9344 453.0763,218.5078 456.8178,224.0235 C459.7086,217.1195 464.2621,217.0811 468.9958,222.1488 C472.8108,216.9114 477.2024,219.0105 479.4833,223.7599 C482.6161,218.6305 486.6449,218.416 490.166,223.3474 C494.0074,217.506 498.9107,218.6284 501.9776,224.1523 C505.046,218.4488 509.6869,219.7477 512.6623,224.2497 C520.8908,228.061 521.5721,235.0747 514.4096,240.5371 C522.43,245.5006 521.911,251.1823 514.5784,256.3101 C511.3961,261.712 507.1087,262.4527 503.1812,257.0998 C500.5229,263.7654 495.4621,264.0238 490.948,259.0502 C486.9825,264.4338 483.6646,263.6977 479.9471,258.7852 C477.5391,264.4725 472.2753,264.6148 469.2716,259.3666 C465.8625,264.1032 460.765,264.5201 457.6493,259.0332 C453.6247,262.8121 448.9151,263.0921 446.7826,256.959 C443.783,263.9778 437.6463,263.2166 433.6072,258.0863 C430.0631,262.5639 424.437,262.1996 422.0847,256.7087 C413.2779,255.5597 410.3225,247.3143 415.1987,240.3911 C410.4821,230.9882 411.9016,224.8994 423.5572,223.6907" fill="#FEF3C7" style="stroke:#181818;stroke-width:0.5;"/><text fill="#000000" font-family="Monospace" font-size="14" lengthAdjust="spacing" textLength="76.4677" x="428.98" y="245.2039">tachometer</text></g><!--entity tool_tee--><g class="entity" data-qualified-name="tool_tee" data-source-line="23" id="ent0018"><path d="M451.0812,895.3066 C455.4274,887.6758 462.8957,886.2128 468.3521,894.0686 C475.7624,885.9511 481.8735,887.8989 486.1645,897.2494 C495.5359,898.5015 499.5959,903.3941 494.761,912.6012 C500.8518,922.3279 495.1784,928.752 485.2901,929.5496 C482.3778,939.5286 476.6845,941.8961 468.3003,935.0874 C459.9824,942.2031 452.1646,938.2997 450.1746,928.3617 C442.362,924.083 439.93,919.4608 447.4387,912.5339 C440.3708,905.3159 441.2557,898.9528 451.0812,895.3066" fill="#FEF3C7" style="stroke:#181818;stroke-width:0.5;"/><text fill="#000000" font-family="Monospace" font-size="14" lengthAdjust="spacing" textLength="20.8459" x="456.79" y="917.2039">tee</text></g><g class="entity" data-qualified-name="toolingGraphSummary" data-source-line="42" id="ent0036"><path d="M49.6,46.0679 L49.6,91.4799 L257.1112,91.4799 L257.1112,56.0679 L247.1112,46.0679 L49.6,46.0679" fill="#FEFFDD" style="stroke:#181818;stroke-width:0.5;"/><path d="M247.1112,46.0679 L247.1112,56.0679 L257.1112,56.0679 L247.1112,46.0679" fill="#FEFFDD" style="stroke:#181818;stroke-width:1;"/><text fill="#000000" font-family="Monospace" font-size="13" lengthAdjust="spacing" textLength="186.5112" x="55.6" y="64.9649">Scanned&#160;3&#160;tooling&#160;entrypoints.</text><text fill="#000000" font-family="Monospace" font-size="13" lengthAdjust="spacing" textLength="179.2182" x="55.6" y="82.6709">Detected&#160;14&#160;third-party&#160;tools.</text></g><!--link source_github_workflows_black_pylint_pytest_yml to tool_actions_checkout--><g class="link" data-entity-1="ent0002" data-entity-2="ent0005" data-link-type="dependency" data-source-line="24" id="lnk19"><path d="M291.71,798.4779 C291.71,718.7879 291.71,504.0379 291.71,504.0379 C291.71,504.0379 341.24,504.0379 389.83,504.0379" fill="none" id="source_github_workflows_black_pylint_pytest_yml-to-tool_actions_checkout" style="stroke:#181818;stroke-width:1;"/><polygon fill="#181818" points="395.83,504.0379,386.83,500.0379,390.83,504.0379,386.83,508.0379,395.83,504.0379" style="stroke:#181818;stroke-width:1;"/></g><!--link source_github_workflows_black_pylint_pytest_yml to tool_actions_setup_python--><g class="link" data-entity-1="ent0002" data-entity-2="ent0006" data-link-type="dependency" data-source-line="25" id="lnk20"><path d="M293.71,798.3779 C293.71,731.8979 293.71,575.7779 293.71,575.7779 C293.71,575.7779 331.94,575.7779 375.74,575.7779" fill="none" id="source_github_workflows_black_pylint_pytest_yml-to-tool_actions_setup_python" style="stroke:#181818;stroke-width:1;"/><polygon fill="#181818" points="381.74,575.7779,372.74,571.7779,376.74,575.7779,372.74,579.7779,381.74,575.7779" style="stroke:#181818;stroke-width:1;"/></g><!--link source_github_workflows_black_pylint_pytest_yml to tool_actions_upload_artifact--><g class="link" data-entity-1="ent0002" data-entity-2="ent0007" data-link-type="dependency" data-source-line="26" id="lnk21"><path d="M300,835.9479 C356.03,835.9479 406.71,835.9479 406.71,835.9479 C406.71,835.9479 406.71,919.8479 406.71,964.7979" fill="none" id="source_github_workflows_black_pylint_pytest_yml-to-tool_actions_upload_artifact" style="stroke:#181818;stroke-width:1;"/><polygon fill="#181818" points="406.71,970.7979,410.71,961.7979,406.71,965.7979,402.71,961.7979,406.71,970.7979" style="stroke:#181818;stroke-width:1;"/></g><!--link source_github_workflows_black_pylint_pytest_yml to tool_black--><g class="link" data-entity-1="ent0002" data-entity-2="ent0008" data-link-type="dependency" data-source-line="27" id="lnk22"><path d="M153.71,857.1779 C153.71,923.6479 153.71,1079.7779 153.71,1079.7779 C153.71,1079.7779 348.75,1079.7779 428.85,1079.7779" fill="none" id="source_github_workflows_black_pylint_pytest_yml-to-tool_black" style="stroke:#181818;stroke-width:1;"/><polygon fill="#181818" points="434.85,1079.7779,425.85,1075.7779,429.85,1079.7779,425.85,1083.7779,434.85,1079.7779" style="stroke:#181818;stroke-width:1;"/></g><!--link source_github_workflows_black_pylint_pytest_yml to tool_pip--><g class="link" data-entity-1="ent0002" data-entity-2="ent0010" data-link-type="dependency" data-source-line="28" id="lnk23"><path d="M295.71,798.4579 C295.71,752.3179 295.71,667.9479 295.71,667.9479 C295.71,667.9479 387.7,667.9479 435.54,667.9479" fill="none" id="source_github_workflows_black_pylint_pytest_yml-to-tool_pip" style="stroke:#181818;stroke-width:1;"/><polygon fill="#181818" points="441.54,667.9479,432.54,663.9479,436.54,667.9479,432.54,671.9479,441.54,667.9479" style="stroke:#181818;stroke-width:1;"/></g><!--link source_github_workflows_black_pylint_pytest_yml to tool_pylint--><g class="link" data-entity-1="ent0002" data-entity-2="ent0011" data-link-type="dependency" data-source-line="29" id="lnk24"><path d="M79.71,857.2979 C79.71,939.2879 79.71,1163.7779 79.71,1163.7779 C79.71,1163.7779 333.23,1163.7779 427.51,1163.7779" fill="none" id="source_github_workflows_black_pylint_pytest_yml-to-tool_pylint" style="stroke:#181818;stroke-width:1;"/><polygon fill="#181818" points="433.51,1163.7779,424.51,1159.7779,428.51,1163.7779,424.51,1167.7779,433.51,1163.7779" style="stroke:#181818;stroke-width:1;"/></g><!--link source_github_workflows_black_pylint_pytest_yml to tool_pytest--><g class="link" data-entity-1="ent0002" data-entity-2="ent0013" data-link-type="dependency" data-source-line="30" id="lnk25"><path d="M297.71,798.3979 C297.71,774.1679 297.71,743.7779 297.71,743.7779 C297.71,743.7779 375.98,743.7779 425.68,743.7779" fill="none" id="source_github_workflows_black_pylint_pytest_yml-to-tool_pytest" style="stroke:#181818;stroke-width:1;"/><polygon fill="#181818" points="431.68,743.7779,422.68,739.7779,426.68,743.7779,422.68,747.7779,431.68,743.7779" style="stroke:#181818;stroke-width:1;"/></g><!--link source_github_workflows_black_pylint_pytest_yml to tool_ruff--><g class="link" data-entity-1="ent0002" data-entity-2="ent0014" data-link-type="dependency" data-source-line="31" id="lnk26"><path d="M300.18,819.5979 C353.31,819.5979 401.99,819.5979 433.72,819.5979" fill="none" id="source_github_workflows_black_pylint_pytest_yml-to-tool_ruff" style="stroke:#181818;stroke-width:1;"/><polygon fill="#181818" points="439.72,819.5979,430.72,815.5979,434.72,819.5979,430.72,823.5979,439.72,819.5979" style="stroke:#181818;stroke-width:1;"/></g><!--link source_github_workflows_black_pylint_pytest_yml to tool_tee--><g class="link" data-entity-1="ent0002" data-entity-2="ent0018" data-link-type="dependency" data-source-line="32" id="lnk27"><path d="M226.71,857.1579 C226.71,881.3779 226.71,911.7779 226.71,911.7779 C226.71,911.7779 373.44,911.7779 435.48,911.7779" fill="none" id="source_github_workflows_black_pylint_pytest_yml-to-tool_tee" style="stroke:#181818;stroke-width:1;"/><polygon fill="#181818" points="441.48,911.7779,432.48,907.7779,436.48,911.7779,432.48,915.7779,441.48,911.7779" style="stroke:#181818;stroke-width:1;"/></g><!--link source_github_workflows_python_publish_yml to tool_actions_checkout--><g class="link" data-entity-1="ent0003" data-entity-2="ent0005" data-link-type="dependency" data-source-line="33" id="lnk28"><path d="M289.65,479.5079 C326.21,479.5079 358.29,479.5079 389.77,479.5079" fill="none" id="source_github_workflows_python_publish_yml-to-tool_actions_checkout" style="stroke:#181818;stroke-width:1;"/><polygon fill="#181818" points="395.77,479.5079,386.77,475.5079,390.77,479.5079,386.77,483.5079,395.77,479.5079" style="stroke:#181818;stroke-width:1;"/></g><!--link source_github_workflows_python_publish_yml to tool_actions_setup_python--><g class="link" data-entity-1="ent0003" data-entity-2="ent0006" data-link-type="dependency" data-source-line="34" id="lnk29"><path d="M289.58,491.7779 C341.63,491.7779 388.71,491.7779 388.71,491.7779 C388.71,491.7779 388.71,520.2479 388.71,545.0279" fill="none" id="source_github_workflows_python_publish_yml-to-tool_actions_setup_python" style="stroke:#181818;stroke-width:1;"/><polygon fill="#181818" points="388.71,551.0279,392.71,542.0279,388.71,546.0279,384.71,542.0279,388.71,551.0279" style="stroke:#181818;stroke-width:1;"/></g><!--link source_github_workflows_python_publish_yml to tool_build--><g class="link" data-entity-1="ent0003" data-entity-2="ent0009" data-link-type="dependency" data-source-line="35" id="lnk30"><path d="M284.71,462.3979 C284.71,438.1679 284.71,407.7779 284.71,407.7779 C284.71,407.7779 377.14,407.7779 429.43,407.7779" fill="none" id="source_github_workflows_python_publish_yml-to-tool_build" style="stroke:#181818;stroke-width:1;"/><polygon fill="#181818" points="435.43,407.7779,426.43,403.7779,430.43,407.7779,426.43,411.7779,435.43,407.7779" style="stroke:#181818;stroke-width:1;"/></g><!--link source_github_workflows_python_publish_yml to tool_pip--><g class="link" data-entity-1="ent0003" data-entity-2="ent0010" data-link-type="dependency" data-source-line="36" id="lnk31"><path d="M153.71,521.0879 C153.71,567.2279 153.71,651.5979 153.71,651.5979 C153.71,651.5979 360.69,651.5979 435.56,651.5979" fill="none" id="source_github_workflows_python_publish_yml-to-tool_pip" style="stroke:#181818;stroke-width:1;"/><polygon fill="#181818" points="441.56,651.5979,432.56,647.5979,436.56,651.5979,432.56,655.5979,441.56,651.5979" style="stroke:#181818;stroke-width:1;"/></g><!--link source_github_workflows_python_publish_yml to tool_pypa_gh_action_pypi_publish--><g class="link" data-entity-1="ent0003" data-entity-2="ent0012" data-link-type="dependency" data-source-line="37" id="lnk32"><path d="M279.71,462.5079 C279.71,414.3779 279.71,323.7779 279.71,323.7779 C279.71,323.7779 311.55,323.7779 353.23,323.7779" fill="none" id="source_github_workflows_python_publish_yml-to-tool_pypa_gh_action_pypi_publish" style="stroke:#181818;stroke-width:1;"/><polygon fill="#181818" points="359.23,323.7779,350.23,319.7779,354.23,323.7779,350.23,327.7779,359.23,323.7779" style="stroke:#181818;stroke-width:1;"/></g><!--link source_scripts_run_tachometer_profile_sh to tool_run--><g class="link" data-entity-1="ent0004" data-entity-2="ent0015" data-link-type="dependency" data-source-line="38" id="lnk33"><path d="M265.71,126.5179 C265.71,101.4479 265.71,69.3579 265.71,69.3579 C265.71,69.3579 379.65,69.3579 434.46,69.3579" fill="none" id="source_scripts_run_tachometer_profile_sh-to-tool_run" style="stroke:#181818;stroke-width:1;"/><polygon fill="#181818" points="440.46,69.3579,431.46,65.3579,435.46,69.3579,431.46,73.3579,440.46,69.3579" style="stroke:#181818;stroke-width:1;"/></g><!--link source_scripts_run_tachometer_profile_sh to tool_summarize--><g class="link" data-entity-1="ent0004" data-entity-2="ent0016" data-link-type="dependency" data-source-line="39" id="lnk34"><path d="M274.7,155.7779 C323.52,155.7779 371.19,155.7779 409.43,155.7779" fill="none" id="source_scripts_run_tachometer_profile_sh-to-tool_summarize" style="stroke:#181818;stroke-width:1;"/><polygon fill="#181818" points="415.43,155.7779,406.43,151.7779,410.43,155.7779,406.43,159.7779,415.43,155.7779" style="stroke:#181818;stroke-width:1;"/></g><!--link source_scripts_run_tachometer_profile_sh to tool_tachometer--><g class="link" data-entity-1="ent0004" data-entity-2="ent0017" data-link-type="dependency" data-source-line="40" id="lnk35"><path d="M153.71,185.1579 C153.71,209.3779 153.71,239.7779 153.71,239.7779 C153.71,239.7779 318.14,239.7779 407.68,239.7779" fill="none" id="source_scripts_run_tachometer_profile_sh-to-tool_tachometer" style="stroke:#181818;stroke-width:1;"/><polygon fill="#181818" points="413.68,239.7779,404.68,235.7779,408.68,239.7779,404.68,243.7779,413.68,239.7779" style="stroke:#181818;stroke-width:1;"/></g><?plantuml-src fLPDhziW4BpxLw2yivEsQLNryYvjKlNGNjBZan31sA1WGB0eSdzz0SSVib-Yn3b5oyxCxfe9008aGquh1axKwA_MKgWA_LB0Aaj0QEKooKf0e94L5GTK2CjeJ6Jk99GXbjJ8SLBeSoIMH3esoXIi95x2NYluGsg6VckbdI5qZA6wDg411GTeGZDHdgXAZY6XAGQDOKXRu3hh8MYrhWHmVzoSjJsLKf_TvYW9FUMc2Hm8Fy0Sh9jQlgbleHi8J5Q4QRHqAqHS6DrRod2hWdiLd5Hmgu9R5HnKqClkm_xJVdUxXO3dMkN67wLmlAt-vP7ghG2-25mhxAWL1jp6UeM1KAxhKC5YOtKf95ix_gQsDwfUwFXzEdQyhqcbzWLQaRJlRaCveoVj8Ob5MNp9u2w3NlQx_VRxrodJCV0cRwURirFsClir1M-a9aLEB8WohCr5MW3k05ETjAy3AuKpZ1Uo665YECKOOGP426Rvv9mH9CLpb26RYkTjy-736D6vPamr15VyCc4CHUUCkLuqwfWQuodA-h8SC36Q8zGOCDiDv-kQMF6F3QX-QOeTh3M0XxKPceqqGz3d7_sZvldh-zvyNcdiq-VL9ePTBfW0o-d1n4-GK-ePVbnRpeycNiuEFiiUE8eVjzOz8dUvwfPGEgSMCMzj_KtUzPCfk_kI6UsXMi3gpvq5t26TAGsiEtV2G-Qd9OOVadIJ7IXHAjoWsowBmcF5DaO7FxbrzgExOJz-Hi25BVBmQ86clN3N6LC5Ykh_0G00?></g></svg>
