<?plantuml 1.2026.2?><svg xmlns="http://www.w3.org/2000/svg" xmlns:xlink="http://www.w3.org/1999/xlink" contentStyleType="text/css" data-diagram-type="DESCRIPTION" height="862px" preserveAspectRatio="none" style="width:707px;height:862px;background:#FFFFFF;" version="1.1" viewBox="0 0 707 862" width="707px" zoomAndPan="magnify"><title>sonetsim Tooling Integrations</title><defs/><g><g class="title" data-source-line="1"><text fill="#000000" font-family="Monospace" font-size="14" font-weight="bold" lengthAdjust="spacing" textLength="209.5758" x="241.9143" y="24.9659">sonetsim&#160;Tooling&#160;Integrations</text></g><!--entity source_github_workflows_black_pylint_pytest_yml--><g class="entity" data-qualified-name="source_github_workflows_black_pylint_pytest_yml" data-source-line="7" id="ent0002"><rect fill="#E0F2FE" height="39.0679" rx="2.5" ry="2.5" style="stroke:#181818;stroke-width:0.5;" width="411.9145" x="7" y="511.4238"/><text fill="#000000" font-family="Monospace" font-size="14" lengthAdjust="spacing" textLength="391.9145" x="17" y="536.3897">.github/workflows/black-pylint-pytest.yml\n8&#160;detected&#160;tools</text></g><!--entity source_github_workflows_python_publish_yml--><g class="entity" data-qualified-name="source_github_workflows_python_publish_yml" data-source-line="8" id="ent0003"><rect fill="#E0F2FE" height="39.0679" rx="2.5" ry="2.5" style="stroke:#181818;stroke-width:0.5;" width="391.0266" x="17.44" y="217.4238"/><text fill="#000000" font-family="Monospace" font-size="14" lengthAdjust="spacing" textLength="371.0266" x="27.44" y="242.3897">.github/workflows/python-publish.yml\n5&#160;detected&#160;tools</text></g><!--entity tool_actions_checkout--><g class="entity" data-qualified-name="tool_actions_checkout" data-source-line="9" id="ent0004"><path d="M524.8821,220.7895 C528.7339,214.6304 533.4765,214.771 537.206,220.912 C540.5117,214.1491 545.5134,215.398 549.552,220.1245 C554.1723,212.9771 558.4329,213.1019 563.0739,220.1048 C567.3487,213.8214 571.1813,214.8094 575.2773,220.2903 C578.6088,215.6044 583.8224,215.758 586.6026,220.9241 C589.3008,215.2664 595.5673,214.7745 599.1445,219.9019 C603.2241,213.8646 608.5219,213.9242 612.895,219.5561 C618.0696,214.1206 622.8312,214.6206 625.6816,221.8944 C628.6526,215.7703 634.1329,215.8544 637.1715,221.8301 C641.1403,215.9966 645.5244,216.7536 649.5344,221.7832 C659.2157,224.1928 660.5259,230.3525 655.5282,238.1409 C660.9731,246.598 659.508,251.7013 649.5647,254.5743 C647.3171,260.2457 641.9573,260.717 638.7814,255.4931 C635.1944,262.0034 629.0323,262.5927 624.4411,256.6495 C621.7076,262.5519 617.7371,264.1673 612.5071,259.4566 C609.2262,265.9606 604.7301,265.7846 600.6501,260.2432 C598.1217,267.6823 591.6043,268.1493 587.596,261.6269 C582.6927,268.0248 577.2336,265.949 574.7465,259.2553 C570.8106,266.0333 564.8889,265.8779 561.3181,258.8989 C556.7834,264.4173 552.0951,262.9387 549.4215,256.9713 C545.5443,262.0889 540.1853,261.7109 537.6414,255.5757 C533.1805,261.0387 526.9586,261.7745 523.6971,254.2844 C516.5991,250.233 515.1977,242.2501 523.7787,238.2785 C515.5364,232.2504 516.4835,225.7677 524.8821,220.7895" fill="#FEF3C7" style="stroke:#181818;stroke-width:0.5;"/><text fill="#000000" font-family="Monospace" font-size="14" lengthAdjust="spacing" textLength="111.9156" x="530.45" y="242.3897">actions/checkout</text></g><!--entity tool_actions_setup_python--><g class="entity" data-qualified-name="tool_actions_setup_python" data-source-line="10" id="ent0005"><path d="M510.5191,305.9745 C512.7316,299.9196 516.9452,299.8579 520.7639,304.4253 C525.6276,299.0956 529.9669,299.7445 533.3597,306.0215 C535.2557,301.4321 540.0536,299.5779 543.5096,304.3256 C546.8691,298.033 550.4766,298.1396 554.5451,303.6635 C558.1253,298.1769 561.863,299.0751 565.3127,303.8011 C569.1514,299.4594 572.7898,299.7878 575.566,304.9476 C578.7414,299.1431 583.7979,297.4903 588.5398,303.1794 C591.5856,298.2086 594.524,298.2671 597.645,303.1097 C601.9781,297.367 606.3061,298.0077 610.0353,303.7606 C614.078,298.8232 617.9471,299.4871 621.0086,304.8101 C623.7771,299.4372 628.5405,300.1134 631.6499,304.4359 C634.7003,298.7919 639.5018,299.507 642.2325,304.7468 C646.4574,299.1045 650.2572,299.788 654.2937,304.9568 C658.0854,299.6865 662.5372,299.9999 665.7376,305.5804 C674.8826,308.2816 676.7141,316.3048 670.194,323.0111 C677.2289,331.1067 674.7816,337.6446 664.1914,339.2086 C660.7094,344.7994 656.931,344.7269 653.7467,338.9354 C651.7018,344.8111 646.7628,344.4346 643.2959,340.4411 C640.549,346.3037 635.9212,346.4551 632.0238,341.6577 C628.9027,347.7735 623.1531,347.5091 620.0838,341.6063 C617.6605,347.172 614.4316,346.5508 610.5333,343.1833 C607.3792,348.3163 602.8185,348.9523 599.3069,343.5647 C596.9321,348.9464 591.2719,349.4204 587.9229,344.6579 C584.3416,350.6815 579.7983,350.3549 576.111,344.7657 C572.5363,349.3445 567.3435,350.0333 564.6466,343.8322 C560.9968,348.3157 556.6918,346.8046 554.9453,341.8714 C550.4932,345.9021 546.7624,345.5663 543.6081,340.2904 C539.4718,346.3994 535.5578,345.0954 531.6784,340.0164 C529.451,344.4423 524.8223,344.3088 522.1688,340.509 C518.3947,346.1844 512.8149,345.5708 510.3162,339.249 C500.5793,337.9631 497.0089,330.7953 501.5811,322.1847 C496.6185,313.2687 499.1467,305.8838 510.5191,305.9745" fill="#FEF3C7" style="stroke:#181818;stroke-width:0.5;"/><text fill="#000000" font-family="Monospace" font-size="14" lengthAdjust="spacing" textLength="140.2795" x="516.27" y="326.3897">actions/setup-python</text></g><!--entity tool_actions_upload_artifact--><g class="entity" data-qualified-name="tool_actions_upload_artifact" data-source-line="11" id="ent0006"><path d="M506.9594,473.1116 C509.4013,467.8432 513.522,468.3805 516.6174,472.4346 C520.7059,466.284 525.9001,467.007 529.7854,472.6614 C532.7509,466.6824 538.4868,466.7274 541.4235,472.6894 C544.5254,468.0105 550.2474,467.657 552.8779,473.2168 C556.0276,467.1419 559.8602,467.7083 564.2535,471.8292 C567.2999,466.3227 572.057,467.4125 574.8146,472.1277 C578.2189,466.1097 582.5182,465.3758 586.868,471.1624 C591.0613,465.4983 597.2243,467.3402 599.745,473.0552 C602.8498,466.0215 607.3689,467.0497 611.7772,471.7146 C615.0016,467.7147 619.5216,467.3814 621.6644,472.8447 C625.5664,466.71 629.1624,466.6675 633.5202,472.3889 C637.4715,466.9168 641.9161,467.7404 645.0665,473.2323 C648.8651,467.8236 653.2972,467.5138 657.2645,473.0443 C660.3719,466.6529 665.7577,466.8143 669.3895,472.5185 C678.7589,476.668 680.1409,482.9782 672.2677,489.9713 C680.3007,496.4724 678.8128,502.3402 669.9206,506.4273 C666.003,512.291 662.1662,512.9504 657.1595,507.675 C653.5543,513.0157 647.8287,512.1026 645.0559,506.7341 C641.8646,511.7145 638.7226,512.6167 634.819,507.4528 C630.8602,514.5436 625.9029,513.4829 621.5823,507.8286 C618.684,513.5905 614.8449,514.2103 610.4792,509.3646 C608.0766,514.9827 603.0882,515.3285 600.1567,509.8569 C596.5446,517.2155 592.1785,516.058 587.1899,511.3342 C582.6845,515.9857 579.5407,514.8936 576.8958,509.4392 C573.5283,515.5253 568.197,515.2077 564.293,510.04 C560.1432,515.5362 556.0613,515.1498 553.2126,508.8207 C548.7652,513.4072 544.8466,513.409 541.6374,507.4603 C538.5987,513.1365 532.8967,514.3668 529.1862,508.1645 C525.2365,513.269 520.4137,513.6866 516.612,507.992 C513.462,512.6551 508.4203,512.412 506.3939,506.8672 C495.9035,505.1333 492.2168,497.7019 499.7728,489.2035 C494.6003,481.0981 497.3196,474.6018 506.9594,473.1116" fill="#FEF3C7" style="stroke:#181818;stroke-width:0.5;"/><text fill="#000000" font-family="Monospace" font-size="14" lengthAdjust="spacing" textLength="149.3374" x="511.74" y="494.3897">actions/upload-artifact</text></g><!--entity tool_build--><g class="entity" data-qualified-name="tool_build" data-source-line="12" id="ent0007"><path d="M563.1082,52.7844 C567.2554,46.9501 572.047,46.7904 575.8622,53.132 C578.9448,46.9876 584.3751,46.0679 588.434,52.1262 C591.2434,47.6058 596.3254,46.4181 599.3028,51.9444 C603.3235,46.5229 608.5077,46.9819 611.5344,53.0066 C622.4028,55.1301 621.9535,64.5368 615.9064,70.8133 C622.3588,77.5362 619.9208,83.6276 611.4024,85.8732 C609.5682,91.4396 604.2799,92.9865 599.9635,88.7779 C596.9477,95.0864 592.3594,95.9025 587.7663,90.408 C583.7264,95.9475 577.3987,95.9824 574.6475,89.0522 C569.8936,92.9668 565.2255,91.4499 563.075,85.8768 C552.7563,85.4567 549.981,76.695 555.0557,68.9724 C549.2728,61.0188 552.3748,52.5222 563.1082,52.7844" fill="#FEF3C7" style="stroke:#181818;stroke-width:0.5;"/><text fill="#000000" font-family="Monospace" font-size="14" lengthAdjust="spacing" textLength="33.0959" x="569.86" y="74.3897">build</text></g><!--entity tool_pip--><g class="entity" data-qualified-name="tool_pip" data-source-line="13" id="ent0008"><path d="M570.2912,388.4925 C574.6355,380.8646 582.1007,379.4019 587.5551,387.2544 C594.9631,379.1406 601.0718,381.088 605.3605,390.4352 C614.7319,391.6873 618.7919,396.5799 613.957,405.787 C620.0478,415.5138 614.3744,421.9379 604.4861,422.7354 C601.5761,432.7111 595.8852,435.0784 587.5033,428.2733 C579.1873,435.3855 571.3726,431.4824 569.3846,421.5475 C561.572,417.2689 559.14,412.6467 566.6487,405.7197 C559.5808,398.5017 560.4657,392.1386 570.2912,388.4925" fill="#FEF3C7" style="stroke:#181818;stroke-width:0.5;"/><text fill="#000000" font-family="Monospace" font-size="14" lengthAdjust="spacing" textLength="20.8319" x="576" y="410.3897">pip</text></g><!--entity tool_psf_black--><g class="entity" data-qualified-name="tool_psf_black" data-source-line="14" id="ent0009"><path d="M550.5103,556.9985 C554.648,551.1758 559.021,549.5085 563.6777,556.4636 C567.2375,550.608 572.6305,551.2135 576.1144,556.5479 C579.1852,551.4344 584.216,549.994 587.7767,556.0357 C590.9573,551.4811 595.3928,550.9661 598.7156,555.8713 C603.1319,548.8909 609.4494,549.3544 612.5468,557.1092 C616.7324,551.0473 621.5029,552.1097 624.3751,558.37 C632.3433,560.4434 635.7271,566.1474 629.2327,573.0171 C636.4405,579.7381 635.3166,588.7359 624.6536,590.8743 C621.8705,597.8101 617.1543,597.6783 612.6385,592.6083 C610.741,600.0738 604.0221,601.1701 599.2551,595.541 C596.0288,602.2202 591.6125,602.2477 586.5802,597.5539 C582.3194,601.7869 577.5647,601.3342 576.1098,594.8202 C570.6368,600.519 566.2927,598.6446 563.3679,592.1561 C558.7702,598.4729 554.4375,597.0794 550.4293,591.5143 C541.3318,588.1463 540.0279,580.4677 547.9067,574.5721 C539.9807,568.3884 541.7018,560.7028 550.5103,556.9985" fill="#FEF3C7" style="stroke:#181818;stroke-width:0.5;"/><text fill="#000000" font-family="Monospace" font-size="14" lengthAdjust="spacing" textLength="59.6118" x="556.61" y="578.3897">psf/black</text></g><!--entity tool_pylint--><g class="entity" data-qualified-name="tool_pylint" data-source-line="15" id="ent0010"><path d="M563.1273,641.2904 C566.3813,634.738 571.985,634.2671 575.6282,640.9221 C579.2269,635.5727 584.5236,635.2923 588.5005,640.459 C591.3085,634.9935 596.2841,634.1604 599.5502,640.0117 C604.0387,634.4911 609.8679,635.1455 612.5185,641.9461 C623.8488,642.11 628.714,647.8712 623.3,658.7674 C626.2619,668.9797 623.6922,674.6663 612.0559,674.3339 C611.0397,681.3503 605.1669,681.5571 600.865,677.7226 C599.4754,684.6898 594.1627,687.0795 588.4381,682.3142 C582.5938,687.4807 577.22,685.5984 575.1217,678.3093 C569.9093,683.1074 565.5147,681.5595 563.1258,675.258 C552.8793,674.1451 549.813,666.0596 556.88,658.4956 C549.5742,650.7037 553.4574,642.9184 563.1273,641.2904" fill="#FEF3C7" style="stroke:#181818;stroke-width:0.5;"/><text fill="#000000" font-family="Monospace" font-size="14" lengthAdjust="spacing" textLength="36.6799" x="568.07" y="662.3897">pylint</text></g><!--entity tool_pypa_gh_action_pypi_publish--><g class="entity" data-qualified-name="tool_pypa_gh_action_pypi_publish" data-source-line="16" id="ent0011"><path d="M487.4446,137.908 C491.3944,130.1571 498.3879,131.8509 502.0352,138.2206 C506.2957,130.3934 512.8032,130.3673 517.3385,137.9476 C520.702,131.667 526.9984,130.0688 530.9236,137.3864 C533.9259,130.113 540.888,129.2921 545.2708,135.9663 C548.4475,129.3126 554.7909,130.2246 558.2084,135.7096 C563.1105,129.9367 569.1312,130.8586 572.6457,137.3439 C576.766,130.9677 582.085,130.1582 587.193,136.1854 C591.6172,130.5132 598.2652,130.478 601.6625,137.3681 C605.0079,130.1199 610.2605,129.7819 614.9399,136.0585 C620.1852,129.4209 624.5021,130.0022 629.3418,136.5031 C633.3063,128.5341 641.0088,128.405 645.337,136.1326 C649.4772,130.3975 654.8367,131.2675 658.4565,136.7418 C662.616,130.024 668.5007,129.4454 672.6811,136.7206 C678.4695,130.6366 683.2998,131.4906 687.695,138.3381 C697.1516,140.4003 700.2511,145.3376 696.3101,154.5287 C700.4044,163.7153 699.0884,170.5226 687.328,171.1324 C682.8335,178.14 678.4203,177.7539 673.5288,171.5469 C667.8805,178.0418 663.3896,176.9248 658.5526,170.5992 C654.8848,177.5323 649.3429,179.7597 643.396,173.1499 C639.2375,178.5324 634.5698,179.8176 630.6632,172.8893 C627.0937,180.7373 619.9673,180.2604 616.3932,172.8937 C612.443,180.3782 605.5357,179.1598 602.1492,172.3326 C598.5911,178.8955 591.0429,179.5455 586.7828,173.166 C581.6464,179.4613 576.782,179.6152 573.121,171.7432 C569.8202,178.6937 564.3131,178.8926 559.2042,173.8395 C553.3881,180.3268 548.3827,178.7518 544.5689,171.6785 C540.1987,179.3712 534.6144,179.8224 529.6854,172.2225 C525.6373,176.9608 520.7895,177.2525 517.5,171.3535 C512.0749,178.3594 506.652,178.9686 502.2186,170.3815 C497.4122,178.4103 492.1401,177.615 487.0913,170.6256 C479.203,166.9444 476.3465,160.7468 484.1143,154.2239 C476.4635,147.8013 479.7295,141.1943 487.4446,137.908" fill="#FEF3C7" style="stroke:#181818;stroke-width:0.5;"/><text fill="#000000" font-family="Monospace" font-size="14" lengthAdjust="spacing" textLength="184.9953" x="493.91" y="158.3897">pypa/gh-action-pypi-publish</text></g><!--entity tool_pytest--><g class="entity" data-qualified-name="tool_pytest" data-source-line="17" id="ent0012"><path d="M560.5293,725.909 C563.2445,719.0308 570.3022,717.4273 574.9673,723.7815 C578.1965,717.9921 583.8845,717.7511 587.822,722.9531 C591.8487,717.1826 597.7101,718.2629 600.0994,724.6118 C605.7868,717.2682 610.9061,716.8827 615.484,725.67 C627.2675,726.0012 630.7019,732.9196 624.1409,742.6199 C629.6647,752.1905 625.815,759.3708 614.4391,758.8215 C612.7327,766.4629 607.909,768.272 602.0881,762.6542 C600.2612,770.2536 593.905,773.3773 587.2365,768.3482 C582.0518,772.5698 575.4124,771.3302 574.775,763.605 C567.6772,769.564 561.113,766.908 560.5906,757.5255 C552.4831,754.7322 549.0482,749.0795 555.3868,741.5736 C548.388,734.1148 552.5614,728.4544 560.5293,725.909" fill="#FEF3C7" style="stroke:#181818;stroke-width:0.5;"/><text fill="#000000" font-family="Monospace" font-size="14" lengthAdjust="spacing" textLength="40.4599" x="566.18" y="746.3897">pytest</text></g><!--entity tool_tee--><g class="entity" data-qualified-name="tool_tee" data-source-line="18" id="ent0013"><path d="M570.2812,808.4925 C574.6274,800.8616 582.0957,799.3986 587.5521,807.2544 C594.9624,799.137 601.0735,801.0848 605.3645,810.4352 C614.7359,811.6873 618.7959,816.5799 613.961,825.787 C620.0518,835.5138 614.3784,841.9379 604.4901,842.7354 C601.5778,852.7144 595.8845,855.0819 587.5003,848.2733 C579.1824,855.389 571.3646,851.4855 569.3746,841.5475 C561.562,837.2689 559.13,832.6467 566.6387,825.7197 C559.5708,818.5017 560.4557,812.1386 570.2812,808.4925" fill="#FEF3C7" style="stroke:#181818;stroke-width:0.5;"/><text fill="#000000" font-family="Monospace" font-size="14" lengthAdjust="spacing" textLength="20.8459" x="575.99" y="830.3897">tee</text></g><g class="entity" data-qualified-name="toolingGraphSummary" data-source-line="33" id="ent0027"><path d="M109.2,137.2538 L109.2,182.6658 L316.7112,182.6658 L316.7112,147.2538 L306.7112,137.2538 L109.2,137.2538" fill="#FEFFDD" style="stroke:#181818;stroke-width:0.5;"/><path d="M306.7112,137.2538 L306.7112,147.2538 L316.7112,147.2538 L306.7112,137.2538" fill="#FEFFDD" style="stroke:#181818;stroke-width:1;"/><text fill="#000000" font-family="Monospace" font-size="13" lengthAdjust="spacing" textLength="186.5112" x="115.2" y="156.1508">Scanned&#160;2&#160;tooling&#160;entrypoints.</text><text fill="#000000" font-family="Monospace" font-size="13" lengthAdjust="spacing" textLength="179.2182" x="115.2" y="173.8568">Detected&#160;10&#160;third-party&#160;tools.</text></g><!--link source_github_workflows_black_pylint_pytest_yml to tool_actions_checkout--><g class="link" data-entity-1="ent0002" data-entity-2="ent0004" data-link-type="dependency" data-source-line="19" id="lnk14"><path d="M410.91,511.1138 C410.91,446.8538 410.91,248.6838 410.91,248.6838 C410.91,248.6838 460.44,248.6838 509.03,248.6838" fill="none" id="source_github_workflows_black_pylint_pytest_yml-to-tool_actions_checkout" style="stroke:#181818;stroke-width:1;"/><polygon fill="#181818" points="515.03,248.6838,506.03,244.6838,510.03,248.6838,506.03,252.6838,515.03,248.6838" style="stroke:#181818;stroke-width:1;"/></g><!--link source_github_workflows_black_pylint_pytest_yml to tool_actions_setup_python--><g class="link" data-entity-1="ent0002" data-entity-2="ent0005" data-link-type="dependency" data-source-line="20" id="lnk15"><path d="M412.91,511.2038 C412.91,458.9238 412.91,320.9638 412.91,320.9638 C412.91,320.9638 451.14,320.9638 494.93,320.9638" fill="none" id="source_github_workflows_black_pylint_pytest_yml-to-tool_actions_setup_python" style="stroke:#181818;stroke-width:1;"/><polygon fill="#181818" points="500.93,320.9638,491.93,316.9638,495.93,320.9638,491.93,324.9638,500.93,320.9638" style="stroke:#181818;stroke-width:1;"/></g><!--link source_github_workflows_black_pylint_pytest_yml to tool_actions_upload_artifact--><g class="link" data-entity-1="ent0002" data-entity-2="ent0006" data-link-type="dependency" data-source-line="21" id="lnk16"><path d="M416.91,510.9538 C416.91,499.7138 416.91,487.9238 416.91,487.9238 C416.91,487.9238 450.04,487.9238 490.7,487.9238" fill="none" id="source_github_workflows_black_pylint_pytest_yml-to-tool_actions_upload_artifact" style="stroke:#181818;stroke-width:1;"/><polygon fill="#181818" points="496.7,487.9238,487.7,483.9238,491.7,487.9238,487.7,491.9238,496.7,487.9238" style="stroke:#181818;stroke-width:1;"/></g><!--link source_github_workflows_black_pylint_pytest_yml to tool_pip--><g class="link" data-entity-1="ent0002" data-entity-2="ent0008" data-link-type="dependency" data-source-line="22" id="lnk17"><path d="M414.91,510.9738 C414.91,477.3538 414.91,413.1338 414.91,413.1338 C414.91,413.1338 506.89,413.1338 554.74,413.1338" fill="none" id="source_github_workflows_black_pylint_pytest_yml-to-tool_pip" style="stroke:#181818;stroke-width:1;"/><polygon fill="#181818" points="560.74,413.1338,551.74,409.1338,555.74,413.1338,551.74,417.1338,560.74,413.1338" style="stroke:#181818;stroke-width:1;"/></g><!--link source_github_workflows_black_pylint_pytest_yml to tool_psf_black--><g class="link" data-entity-1="ent0002" data-entity-2="ent0009" data-link-type="dependency" data-source-line="23" id="lnk18"><path d="M419.35,530.9638 C505.94,530.9638 586.91,530.9638 586.91,530.9638 C586.91,530.9638 586.91,533.0038 586.91,542.0438" fill="none" id="source_github_workflows_black_pylint_pytest_yml-to-tool_psf_black" style="stroke:#181818;stroke-width:1;"/><polygon fill="#181818" points="586.91,548.0438,590.91,539.0438,586.91,543.0438,582.91,539.0438,586.91,548.0438" style="stroke:#181818;stroke-width:1;"/></g><!--link source_github_workflows_black_pylint_pytest_yml to tool_pylint--><g class="link" data-entity-1="ent0002" data-entity-2="ent0010" data-link-type="dependency" data-source-line="24" id="lnk19"><path d="M315.91,550.9238 C315.91,586.4538 315.91,656.9638 315.91,656.9638 C315.91,656.9638 474.19,656.9638 546.7,656.9638" fill="none" id="source_github_workflows_black_pylint_pytest_yml-to-tool_pylint" style="stroke:#181818;stroke-width:1;"/><polygon fill="#181818" points="552.7,656.9638,543.7,652.9638,547.7,656.9638,543.7,660.9638,552.7,656.9638" style="stroke:#181818;stroke-width:1;"/></g><!--link source_github_workflows_black_pylint_pytest_yml to tool_pytest--><g class="link" data-entity-1="ent0002" data-entity-2="ent0012" data-link-type="dependency" data-source-line="25" id="lnk20"><path d="M212.91,550.7138 C212.91,602.9938 212.91,740.9638 212.91,740.9638 C212.91,740.9638 451.7,740.9638 544.94,740.9638" fill="none" id="source_github_workflows_black_pylint_pytest_yml-to-tool_pytest" style="stroke:#181818;stroke-width:1;"/><polygon fill="#181818" points="550.94,740.9638,541.94,736.9638,545.94,740.9638,541.94,744.9638,550.94,740.9638" style="stroke:#181818;stroke-width:1;"/></g><!--link source_github_workflows_black_pylint_pytest_yml to tool_tee--><g class="link" data-entity-1="ent0002" data-entity-2="ent0013" data-link-type="dependency" data-source-line="26" id="lnk21"><path d="M109.91,550.7038 C109.91,616.6238 109.91,824.9638 109.91,824.9638 C109.91,824.9638 455.82,824.9638 554.79,824.9638" fill="none" id="source_github_workflows_black_pylint_pytest_yml-to-tool_tee" style="stroke:#181818;stroke-width:1;"/><polygon fill="#181818" points="560.79,824.9638,551.79,820.9638,555.79,824.9638,551.79,828.9638,560.79,824.9638" style="stroke:#181818;stroke-width:1;"/></g><!--link source_github_workflows_python_publish_yml to tool_actions_checkout--><g class="link" data-entity-1="ent0003" data-entity-2="ent0004" data-link-type="dependency" data-source-line="27" id="lnk22"><path d="M408.71,233.0538 C446.79,233.0538 478.36,233.0538 509.09,233.0538" fill="none" id="source_github_workflows_python_publish_yml-to-tool_actions_checkout" style="stroke:#181818;stroke-width:1;"/><polygon fill="#181818" points="515.09,233.0538,506.09,229.0538,510.09,233.0538,506.09,237.0538,515.09,233.0538" style="stroke:#181818;stroke-width:1;"/></g><!--link source_github_workflows_python_publish_yml to tool_actions_setup_python--><g class="link" data-entity-1="ent0003" data-entity-2="ent0005" data-link-type="dependency" data-source-line="28" id="lnk23"><path d="M408.87,240.8638 C463.35,240.8638 507.91,240.8638 507.91,240.8638 C507.91,240.8638 507.91,266.5438 507.91,290.0538" fill="none" id="source_github_workflows_python_publish_yml-to-tool_actions_setup_python" style="stroke:#181818;stroke-width:1;"/><polygon fill="#181818" points="507.91,296.0538,511.91,287.0538,507.91,291.0538,503.91,287.0538,507.91,296.0538" style="stroke:#181818;stroke-width:1;"/></g><!--link source_github_workflows_python_publish_yml to tool_build--><g class="link" data-entity-1="ent0003" data-entity-2="ent0007" data-link-type="dependency" data-source-line="29" id="lnk24"><path d="M362.91,217.0238 C362.91,172.5238 362.91,68.9638 362.91,68.9638 C362.91,68.9638 486.59,68.9638 548.39,68.9638" fill="none" id="source_github_workflows_python_publish_yml-to-tool_build" style="stroke:#181818;stroke-width:1;"/><polygon fill="#181818" points="554.39,68.9638,545.39,64.9638,549.39,68.9638,545.39,72.9638,554.39,68.9638" style="stroke:#181818;stroke-width:1;"/></g><!--link source_github_workflows_python_publish_yml to tool_pip--><g class="link" data-entity-1="ent0003" data-entity-2="ent0008" data-link-type="dependency" data-source-line="30" id="lnk25"><path d="M212.91,256.8738 C212.91,299.7238 212.91,396.7838 212.91,396.7838 C212.91,396.7838 470.36,396.7838 554.74,396.7838" fill="none" id="source_github_workflows_python_publish_yml-to-tool_pip" style="stroke:#181818;stroke-width:1;"/><polygon fill="#181818" points="560.74,396.7838,551.74,392.7838,555.74,396.7838,551.74,400.7838,560.74,396.7838" style="stroke:#181818;stroke-width:1;"/></g><!--link source_github_workflows_python_publish_yml to tool_pypa_gh_action_pypi_publish--><g class="link" data-entity-1="ent0003" data-entity-2="ent0011" data-link-type="dependency" data-source-line="31" id="lnk26"><path d="M408.75,225.2438 C453.36,225.2438 487.91,225.2438 487.91,225.2438 C487.91,225.2438 487.91,204.7438 487.91,183.8338" fill="none" id="source_github_workflows_python_publish_yml-to-tool_pypa_gh_action_pypi_publish" style="stroke:#181818;stroke-width:1;"/><polygon fill="#181818" points="487.91,177.8338,483.91,186.8338,487.91,182.8338,491.91,186.8338,487.91,177.8338" style="stroke:#181818;stroke-width:1;"/></g><?plantuml-src fPLDZziW48Rl_XKeUtQotQfgJxsqSTL3UqcFAo5YOuE26GI38l_xZhyIr-v6c_WKZUTz7uRC0AZHI1R0IWowPdy0ZBOL-sbHLbwW1XiI8qja2CphIY4hj9TvcqZ2ILidlAXPKAA0SsiiXGboaYbaAQB132p-5hLaly12S2AVQdAe7HLWyO0D5TFYXQtCL495IMoSPE1HGNAHiCssqgZYSNS6VoeDdCFkQ4H-Ibr37gGVb06tJMrUN-qNAWV9AWlQ3fYmOIBGtgFF9Uyn_8BX7ORt6DvZE67Oq_uvUydsjsiWlGARkdWqEgXX-K_tBDyJ-43uP-NSG2pOHdHT2BjSoVm44JjS2-P3XeyPzfJjiu_VFi-TGM9qQR_IqjrbXphU8aHdG1IfyAXB-hQ4z08-2kQSOzIckBgwSAvnsbqL52poeUnxFb65ik_VGjkrSoBiugNAYLsbqduJz0SvFRPoQdM2LshOQHlgiLjBNZizKsiRprKevLL2mIL_xuIcwTV_py5wqdGcrjDcm_4uaAPYXNaSbXM8BhN6ttvxt4_JajnnaTm_8E-1l6isRe6wq_-GyrR_R_hUFiE91PJZSQINxOSNJXrYNGlV98TSM4lN-CkOPVHw-SO1DIXia-_ZDV_XcQ7IlaZf5SEcl_MtYRG5Q-b_0G00?></g></svg>